<svg id="svg" version="1.1" xmlns="http://www.w3.org/2000/svg" xmlns:xlink="http://www.w3.org/1999/xlink" width="400" height="400" viewBox="0, 0, 400,400"><g id="svgg"><path id="path0" d="M254.401 126.277 C 248.360 127.979,244.511 131.140,240.923 137.347 L 239.068 140.556 236.664 140.768 C 232.280 141.156,229.312 142.520,226.515 145.433 C 223.226 148.857,222.715 149.842,222.410 153.333 C 222.330 154.250,222.350 154.625,222.455 154.167 C 222.670 153.221,223.333 153.031,223.333 153.915 C 223.333 154.235,223.583 154.747,223.889 155.053 C 224.490 155.654,224.463 155.719,224.584 153.365 C 224.629 152.473,225.556 151.755,225.556 152.611 C 225.556 153.552,227.576 154.926,227.711 154.078 C 227.791 153.572,228.114 153.333,228.718 153.333 C 229.402 153.333,229.555 153.482,229.383 153.981 C 229.202 154.508,229.271 154.491,229.753 153.889 C 230.080 153.481,230.352 152.957,230.359 152.724 C 230.387 151.714,234.492 148.906,236.296 148.662 C 238.110 148.416,239.321 148.460,241.344 148.844 C 243.551 149.264,245.654 148.962,245.498 148.249 C 245.464 148.092,245.607 147.546,245.816 147.037 C 246.024 146.528,246.310 145.330,246.450 144.375 C 246.590 143.421,247.113 142.038,247.612 141.303 C 248.110 140.568,248.519 139.881,248.519 139.777 C 248.519 139.672,249.196 138.863,250.024 137.980 C 257.176 130.349,271.547 133.197,274.233 142.779 C 275.403 146.954,279.264 149.427,280.781 146.973 C 281.266 146.188,287.082 146.066,288.228 146.817 C 288.726 147.143,289.245 147.298,289.381 147.162 C 289.518 147.025,289.630 147.136,289.630 147.407 C 289.630 147.679,289.727 147.804,289.846 147.685 C 290.328 147.203,293.218 150.120,293.965 151.842 C 294.829 153.832,294.729 157.078,293.763 158.435 C 293.323 159.053,292.963 159.710,292.963 159.895 C 292.963 160.080,292.463 160.711,291.852 161.296 C 291.241 161.882,290.741 162.580,290.741 162.847 C 290.741 163.115,290.574 163.333,290.370 163.333 C 289.813 163.333,289.973 164.490,290.703 165.741 C 291.485 167.082,293.691 167.932,295.349 167.532 L 296.481 167.259 295.185 167.011 C 294.404 166.862,294.211 166.745,294.700 166.715 C 295.147 166.689,295.615 166.500,295.741 166.296 C 295.867 166.093,296.251 165.928,296.596 165.932 C 297.136 165.936,297.145 165.987,296.667 166.296 C 295.900 166.792,296.434 166.757,297.575 166.237 C 298.574 165.782,298.938 164.575,297.963 164.949 C 297.657 165.066,297.407 165.001,297.407 164.803 C 297.407 164.606,297.574 164.444,297.778 164.444 C 297.981 164.444,298.148 164.266,298.148 164.048 C 298.148 163.129,299.169 162.579,299.380 163.384 C 299.498 163.834,299.753 164.042,300.000 163.889 C 300.231 163.746,300.325 163.535,300.209 163.419 C 300.093 163.303,300.224 162.945,300.499 162.623 C 302.909 159.807,303.033 152.745,300.759 147.885 C 299.269 144.701,293.606 139.745,291.111 139.441 C 291.009 139.428,290.509 139.180,290.000 138.888 C 289.393 138.541,287.770 138.332,285.290 138.282 C 280.848 138.193,281.114 138.309,279.707 135.833 C 275.183 127.870,263.887 123.604,254.401 126.277 M230.402 151.506 C 229.774 152.164,229.259 152.551,229.259 152.366 C 229.259 151.905,231.142 149.908,231.366 150.131 C 231.464 150.230,231.031 150.849,230.402 151.506 M132.490 159.693 C 130.339 160.478,130.000 162.006,130.000 170.927 L 130.000 178.920 128.426 178.021 C 114.958 170.324,97.976 179.766,98.220 194.815 C 98.262 197.454,98.277 197.500,98.519 195.741 L 98.773 193.889 98.831 195.463 C 98.896 197.224,99.484 197.560,99.863 196.053 C 100.100 195.106,100.131 195.095,100.653 195.775 C 100.982 196.203,101.125 196.262,101.016 195.926 C 100.634 194.750,102.191 193.666,103.257 194.365 C 103.960 194.825,104.242 194.867,104.355 194.527 C 104.439 194.275,104.660 194.164,104.846 194.279 C 105.033 194.394,105.185 194.062,105.185 193.540 C 105.185 193.019,105.352 192.593,105.556 192.593 C 105.759 192.593,105.926 193.166,105.926 193.867 C 105.926 194.568,106.051 195.219,106.204 195.313 C 106.356 195.408,106.473 194.959,106.462 194.316 C 106.400 190.520,109.748 186.143,113.889 184.607 C 115.354 184.064,115.776 184.005,118.148 184.015 C 120.703 184.025,121.066 184.084,122.709 184.758 C 123.283 184.993,123.831 185.185,123.928 185.185 C 125.478 185.185,130.000 190.918,130.000 192.883 C 130.000 193.368,130.098 193.345,130.544 192.756 C 131.036 192.105,131.089 192.099,131.099 192.685 C 131.111 193.329,131.852 193.638,131.852 192.999 C 131.852 192.247,137.321 192.594,137.521 193.359 C 138.251 196.147,138.464 192.912,138.502 178.499 C 138.543 163.186,138.530 162.899,137.744 161.500 C 136.565 159.403,134.876 158.822,132.490 159.693 M255.816 160.150 C 253.759 162.395,253.890 161.127,253.875 178.880 C 253.865 191.572,253.971 195.584,254.336 196.296 C 254.800 197.201,254.811 197.189,254.863 195.741 C 254.893 194.884,254.983 194.611,255.076 195.093 C 255.289 196.198,255.926 196.163,255.926 195.045 C 255.926 194.561,256.176 193.957,256.481 193.704 C 256.810 193.431,257.037 193.398,257.037 193.624 C 257.037 193.833,257.329 193.931,257.685 193.841 C 258.045 193.750,258.771 194.087,259.318 194.600 C 260.361 195.577,260.741 195.330,260.741 193.673 C 260.741 193.283,260.907 192.963,261.111 192.963 C 261.315 192.963,261.498 192.421,261.518 191.759 C 261.553 190.632,261.573 190.615,261.833 191.481 C 262.078 192.301,262.141 192.216,262.373 190.741 C 262.698 188.673,262.420 163.213,262.066 162.639 C 261.924 162.410,261.908 162.222,262.030 162.222 C 262.269 162.222,261.777 161.565,260.480 160.150 C 259.873 159.487,259.275 159.259,258.148 159.259 C 257.021 159.259,256.424 159.487,255.816 160.150 M294.439 165.093 C 294.442 165.347,294.218 165.556,293.940 165.556 C 293.597 165.556,293.495 165.248,293.620 164.596 C 293.803 163.635,294.426 164.013,294.439 165.093 M298.704 164.074 C 298.556 164.313,298.602 164.676,298.805 164.879 C 299.052 165.126,299.265 165.105,299.444 164.815 C 299.592 164.576,299.547 164.213,299.343 164.010 C 299.096 163.763,298.883 163.784,298.704 164.074 M292.593 166.336 C 292.593 166.518,292.884 166.686,293.241 166.710 C 293.857 166.750,293.857 166.761,293.241 166.922 C 292.885 167.015,292.344 166.841,292.038 166.535 C 291.328 165.825,291.327 165.520,292.037 165.792 C 292.343 165.909,292.593 166.154,292.593 166.336 M146.296 175.145 C 146.296 175.327,145.883 175.579,145.377 175.706 C 143.567 176.160,143.329 177.382,143.378 186.000 C 143.413 192.224,143.502 193.557,143.801 192.315 L 144.179 190.741 146.534 190.741 C 147.857 190.741,148.889 190.578,148.889 190.370 C 148.889 189.923,150.257 189.871,150.432 190.312 C 150.727 191.055,152.916 191.102,153.148 190.370 C 153.427 189.492,156.817 185.926,157.374 185.926 C 157.596 185.926,157.778 185.791,157.778 185.627 C 157.778 185.029,160.616 184.124,163.104 183.929 C 164.506 183.819,165.705 183.678,165.768 183.614 C 169.452 179.930,167.987 175.556,163.070 175.556 C 160.079 175.556,155.016 177.307,153.171 178.979 C 152.285 179.782,151.852 179.807,151.852 179.056 C 151.852 177.978,150.760 176.369,149.502 175.591 C 148.232 174.806,146.296 174.537,146.296 175.145 M212.593 175.224 C 212.593 175.399,212.216 175.636,211.756 175.751 C 210.015 176.188,209.697 177.545,209.658 184.696 C 209.635 189.024,209.745 191.108,209.978 190.750 C 210.281 190.282,210.494 190.323,211.447 191.027 C 212.776 192.009,212.963 192.038,212.963 191.259 C 212.963 190.786,213.290 190.692,214.583 190.796 C 215.900 190.902,216.163 190.822,215.995 190.370 C 215.817 189.893,215.876 189.887,216.412 190.323 C 216.756 190.603,217.037 190.684,217.037 190.505 C 217.037 190.325,217.360 189.977,217.754 189.730 C 218.371 189.345,218.453 189.376,218.343 189.951 C 218.126 191.075,218.764 191.720,219.081 190.697 C 219.230 190.212,219.586 189.565,219.871 189.259 C 220.156 188.954,220.941 188.095,221.617 187.351 C 225.619 182.943,234.186 182.671,238.335 186.820 C 238.853 187.337,239.397 187.765,239.545 187.769 C 239.694 187.774,239.815 187.951,239.815 188.162 C 239.815 188.373,239.998 188.664,240.222 188.810 C 241.164 189.421,242.847 194.474,242.367 195.250 C 242.263 195.418,242.355 195.556,242.571 195.556 C 242.786 195.556,242.968 194.931,242.975 194.167 C 242.985 192.942,243.044 192.853,243.472 193.417 C 243.901 193.981,244.040 193.993,244.664 193.521 C 245.647 192.777,246.411 192.836,247.037 193.704 C 248.121 195.208,248.884 194.651,248.939 192.315 C 248.967 191.144,249.060 190.546,249.146 190.987 C 249.232 191.428,249.518 191.872,249.782 191.973 C 250.315 192.178,250.282 191.332,249.678 189.352 C 249.476 188.690,249.394 188.148,249.496 188.148 C 249.597 188.148,249.345 187.678,248.936 187.104 C 248.527 186.529,248.141 185.827,248.078 185.543 C 248.015 185.259,247.586 184.605,247.126 184.088 C 246.665 183.571,246.208 182.898,246.109 182.593 C 245.708 181.346,241.935 178.424,239.132 177.189 C 232.995 174.484,225.555 174.714,220.655 177.760 C 218.385 179.171,218.417 179.174,217.677 177.499 C 216.848 175.620,212.593 173.716,212.593 175.224 M296.849 175.885 C 295.204 176.622,294.908 177.107,292.757 182.593 C 291.999 184.528,290.801 187.278,290.096 188.704 C 289.390 190.130,288.751 191.617,288.675 192.010 C 288.598 192.402,288.370 192.826,288.166 192.952 C 287.963 193.077,287.738 193.506,287.667 193.905 C 287.596 194.304,287.258 195.275,286.917 196.064 C 286.576 196.853,286.296 197.619,286.296 197.766 C 286.296 197.914,286.029 198.570,285.702 199.225 C 285.061 200.510,285.189 200.961,286.095 200.613 C 286.409 200.492,286.667 199.972,286.667 199.456 C 286.667 198.723,286.854 198.519,287.523 198.519 C 287.994 198.519,288.737 198.185,289.174 197.778 C 290.003 197.005,292.593 196.725,292.593 197.407 C 292.593 197.611,292.926 197.778,293.333 197.778 C 293.741 197.778,294.074 197.611,294.074 197.407 C 294.074 197.204,294.241 197.037,294.444 197.037 C 294.648 197.037,294.815 197.287,294.815 197.593 C 294.815 197.898,294.570 198.148,294.271 198.148 C 293.936 198.148,293.810 198.365,293.944 198.713 C 294.211 199.409,295.185 198.747,295.185 197.870 C 295.185 197.563,295.974 195.708,296.938 193.749 C 297.902 191.789,298.705 190.102,298.722 190.000 C 298.756 189.792,299.915 187.198,300.416 186.209 C 300.594 185.855,300.741 185.313,300.741 185.005 C 300.741 184.697,300.935 184.444,301.173 184.444 C 301.410 184.444,301.508 184.347,301.389 184.229 C 301.271 184.110,301.574 183.152,302.065 182.099 C 304.172 177.573,301.140 173.961,296.849 175.885 M180.533 176.110 C 175.958 177.344,171.849 180.100,169.630 183.423 C 169.120 184.186,168.569 184.811,168.404 184.812 C 168.239 184.814,168.201 184.971,168.319 185.162 C 168.437 185.354,168.239 185.682,167.878 185.892 C 167.517 186.102,167.368 186.279,167.545 186.285 C 167.723 186.291,167.667 186.539,167.421 186.836 C 167.175 187.132,167.072 187.535,167.193 187.730 C 167.313 187.925,167.248 188.141,167.048 188.209 C 166.206 188.496,166.156 190.741,166.991 190.741 C 167.424 190.741,167.778 190.574,167.778 190.370 C 167.778 190.167,167.627 190.000,167.442 190.000 C 167.257 190.000,167.203 189.629,167.322 189.176 C 167.440 188.723,167.605 188.556,167.688 188.806 C 167.947 189.581,169.259 189.341,169.259 188.519 C 169.259 188.107,169.506 187.778,169.815 187.778 C 170.120 187.778,170.370 187.944,170.370 188.148 C 170.370 188.352,170.620 188.519,170.926 188.519 C 171.231 188.519,171.481 188.685,171.481 188.889 C 171.481 189.093,171.908 189.259,172.429 189.259 C 172.967 189.259,173.278 189.099,173.148 188.889 C 173.022 188.685,173.137 188.506,173.404 188.490 C 173.671 188.475,174.193 188.404,174.566 188.334 C 175.027 188.246,175.178 188.373,175.040 188.732 C 174.735 189.529,175.484 189.364,176.012 188.519 C 176.266 188.111,176.644 187.778,176.851 187.778 C 177.058 187.778,177.757 187.200,178.405 186.494 C 179.053 185.789,180.052 185.099,180.625 184.962 C 181.198 184.825,181.863 184.559,182.103 184.371 C 182.342 184.182,183.215 184.019,184.042 184.008 C 184.869 183.996,185.456 183.842,185.346 183.664 C 185.236 183.487,185.364 183.412,185.629 183.498 C 185.894 183.585,186.996 183.751,188.077 183.869 C 190.916 184.179,196.329 187.196,195.744 188.143 C 195.643 188.307,195.819 188.541,196.137 188.662 C 196.459 188.786,196.596 189.073,196.448 189.314 C 196.289 189.571,196.343 189.644,196.583 189.496 C 196.803 189.360,197.090 189.584,197.221 189.995 C 197.626 191.273,199.484 191.006,199.759 189.630 C 199.881 189.019,200.123 188.519,200.297 188.519 C 200.470 188.519,200.539 189.019,200.449 189.630 C 200.326 190.472,200.431 190.741,200.884 190.741 C 201.235 190.741,201.481 190.435,201.481 190.000 C 201.481 189.450,201.728 189.259,202.442 189.259 C 203.091 189.259,203.465 189.499,203.596 190.000 C 203.879 191.080,204.437 190.906,204.487 189.722 C 204.514 189.096,204.596 188.953,204.700 189.352 C 204.793 189.708,205.006 190.000,205.173 190.000 C 205.645 190.000,205.937 188.939,205.533 188.690 C 205.335 188.568,205.269 188.312,205.386 188.123 C 205.503 187.933,205.431 187.778,205.224 187.778 C 205.018 187.778,204.527 187.049,204.133 186.158 C 203.739 185.268,202.815 183.872,202.079 183.058 C 201.343 182.243,200.741 181.389,200.741 181.159 C 200.741 180.929,200.552 180.741,200.321 180.741 C 200.090 180.741,199.632 180.440,199.303 180.072 C 196.152 176.552,186.470 174.508,180.533 176.110 M267.546 175.921 C 266.155 176.482,265.072 178.403,265.282 179.935 C 265.478 181.357,268.052 187.131,268.586 187.346 C 268.755 187.415,268.799 187.623,268.684 187.809 C 268.569 187.996,268.651 188.148,268.867 188.148 C 269.083 188.148,269.259 188.311,269.259 188.509 C 269.259 189.969,272.373 195.263,272.694 194.349 C 272.799 194.050,273.117 194.207,273.602 194.796 C 274.459 195.837,275.556 195.239,275.556 193.730 C 275.556 193.308,275.722 192.963,275.926 192.963 C 276.130 192.963,276.296 193.146,276.296 193.370 C 276.296 193.594,276.867 194.349,277.565 195.046 C 278.262 195.744,278.897 196.507,278.976 196.743 C 279.054 196.978,279.397 197.063,279.738 196.933 C 280.085 196.799,280.268 196.460,280.154 196.163 C 280.041 195.870,280.128 195.520,280.345 195.386 C 280.577 195.243,280.741 195.458,280.741 195.904 C 280.741 196.323,280.899 196.667,281.092 196.667 C 281.446 196.667,280.900 194.613,280.354 193.889 C 280.200 193.685,279.465 191.935,278.721 190.000 C 277.976 188.065,276.982 185.815,276.511 185.000 C 276.041 184.185,275.442 182.852,275.181 182.037 C 273.378 176.410,271.018 174.519,267.546 175.921 M272.222 195.463 C 272.222 195.694,272.382 195.981,272.576 196.101 C 272.771 196.222,272.837 196.565,272.722 196.864 C 272.607 197.163,272.698 197.407,272.923 197.407 C 273.149 197.407,273.328 197.199,273.322 196.944 C 273.307 196.358,272.222 194.897,272.222 195.463 M275.556 196.296 C 275.556 196.704,275.722 197.037,275.926 197.037 C 276.130 197.037,276.296 196.704,276.296 196.296 C 276.296 195.889,276.130 195.556,275.926 195.556 C 275.722 195.556,275.556 195.889,275.556 196.296 M198.312 256.019 L 197.005 257.222 196.928 272.287 C 196.854 286.979,196.835 287.336,196.159 286.731 C 195.777 286.390,194.027 284.723,192.270 283.027 C 187.486 278.410,185.549 277.861,183.504 280.542 C 181.732 282.865,182.113 283.946,186.085 287.857 C 201.173 302.715,200.415 302.239,203.889 299.035 C 205.647 297.414,212.884 290.370,212.791 290.370 C 212.756 290.370,214.030 289.067,215.623 287.475 C 219.429 283.669,219.658 280.632,216.238 279.330 C 214.301 278.593,212.912 279.372,208.977 283.405 C 207.197 285.229,205.471 286.870,205.141 287.052 C 204.593 287.353,204.545 286.109,204.586 272.487 C 204.633 256.351,204.643 256.430,202.600 255.374 C 200.929 254.510,199.759 254.686,198.312 256.019 M165.712 291.143 C 165.084 291.837,165.099 291.851,166.258 291.619 C 167.269 291.417,167.482 291.501,167.657 292.172 C 167.776 292.626,168.161 292.963,168.562 292.963 C 169.142 292.963,169.259 293.244,169.259 294.630 C 169.259 295.546,169.426 296.296,169.630 296.296 C 169.833 296.296,170.000 295.463,170.000 294.444 C 170.000 293.426,169.833 292.593,169.630 292.593 C 169.426 292.593,169.259 292.264,169.259 291.863 C 169.259 291.329,169.432 291.195,169.907 291.362 C 170.430 291.546,170.468 291.496,170.103 291.102 C 169.345 290.283,166.466 290.310,165.712 291.143 M164.381 294.074 C 164.303 294.889,164.369 295.556,164.527 295.556 C 164.685 295.556,164.815 294.889,164.815 294.074 C 164.815 293.259,164.749 292.593,164.669 292.593 C 164.588 292.593,164.459 293.259,164.381 294.074 M165.802 293.210 C 165.667 293.346,165.556 293.796,165.556 294.210 C 165.556 295.083,166.376 294.498,166.519 293.522 C 166.604 292.942,166.232 292.780,165.802 293.210 " stroke="none" fill="#40a0c3" fill-rule="evenodd"></path><path id="path1" d="M262.354 193.889 C 262.353 195.722,262.415 196.519,262.493 195.659 C 262.571 194.800,262.571 193.300,262.495 192.326 C 262.418 191.352,262.355 192.056,262.354 193.889 M198.561 195.452 C 198.382 205.081,185.601 211.455,178.943 205.235 C 178.316 204.650,177.715 204.261,177.606 204.370 C 177.497 204.479,177.407 204.308,177.407 203.990 C 177.407 203.673,177.156 203.316,176.849 203.198 C 176.541 203.080,176.086 202.521,175.838 201.955 C 175.589 201.389,175.292 200.843,175.177 200.741 C 175.062 200.639,174.680 199.972,174.326 199.259 L 173.684 197.963 173.928 199.444 C 174.417 202.401,177.381 205.937,180.633 207.441 C 182.331 208.226,183.493 209.314,182.037 208.755 C 181.732 208.638,181.107 208.685,180.649 208.859 C 179.968 209.118,180.087 209.171,181.296 209.150 C 182.111 209.136,182.890 208.958,183.027 208.753 C 183.282 208.373,186.035 209.058,186.920 209.721 C 187.191 209.924,187.755 209.820,188.401 209.446 C 188.975 209.114,189.153 208.930,188.796 209.039 C 188.440 209.147,188.148 209.111,188.148 208.958 C 188.148 208.805,189.045 208.667,190.141 208.651 C 191.409 208.633,192.454 208.389,193.011 207.981 L 193.889 207.339 192.963 207.609 C 191.018 208.177,190.926 208.183,191.624 207.703 C 192.007 207.439,192.809 206.824,193.405 206.337 C 194.001 205.851,194.840 205.434,195.269 205.411 C 195.699 205.389,196.127 205.139,196.221 204.856 C 196.324 204.546,196.227 204.443,195.978 204.597 C 195.715 204.760,195.644 204.644,195.785 204.278 C 196.089 203.484,196.571 203.559,196.852 204.444 C 196.981 204.852,197.367 205.188,197.710 205.191 C 198.239 205.196,198.251 205.249,197.788 205.542 C 197.428 205.769,197.141 205.736,196.947 205.443 C 196.733 205.120,196.550 205.175,196.271 205.648 C 196.061 206.005,195.564 206.296,195.167 206.296 C 194.643 206.296,194.444 206.551,194.444 207.222 C 194.444 207.807,194.654 208.148,195.012 208.148 C 195.324 208.148,195.699 208.440,195.845 208.796 C 196.118 209.461,197.407 209.809,197.407 209.218 C 197.407 209.037,197.173 208.889,196.887 208.889 C 196.548 208.889,196.433 208.630,196.559 208.148 C 196.666 207.741,196.900 207.407,197.080 207.407 C 197.260 207.407,197.407 207.138,197.407 206.809 C 197.407 206.344,197.635 206.264,198.426 206.453 C 200.937 207.051,200.963 207.043,200.814 205.768 C 200.686 204.673,200.587 204.594,199.505 204.738 C 198.385 204.887,198.366 204.869,199.074 204.324 C 199.603 203.917,199.701 203.638,199.418 203.350 C 199.132 203.060,198.778 203.157,198.157 203.696 C 197.122 204.594,196.884 204.636,197.178 203.870 C 197.305 203.540,197.243 203.391,197.033 203.521 C 196.387 203.920,196.639 203.175,197.658 201.676 C 198.651 200.215,199.286 195.836,198.790 193.878 C 198.688 193.477,198.585 194.185,198.561 195.452 M206.000 194.148 C 205.756 194.393,205.554 195.518,205.551 196.648 C 205.546 199.069,204.677 202.617,203.959 203.146 C 203.681 203.351,203.524 203.727,203.609 203.981 C 203.695 204.236,203.596 204.444,203.389 204.444 C 203.182 204.444,202.905 204.785,202.773 205.201 C 202.601 205.741,202.330 205.893,201.822 205.731 C 201.076 205.495,200.830 206.079,201.501 206.493 C 202.359 207.024,197.408 211.566,194.252 213.145 C 193.441 213.550,192.694 213.979,192.593 214.098 C 192.491 214.216,192.074 214.446,191.667 214.607 C 191.099 214.832,191.051 214.947,191.461 215.098 C 191.983 215.290,196.729 213.054,196.975 212.500 C 197.043 212.347,197.353 212.222,197.663 212.222 C 198.021 212.222,198.147 212.012,198.007 211.647 C 197.884 211.327,197.944 211.170,198.142 211.292 C 198.600 211.575,200.370 210.423,200.370 209.843 C 200.370 209.600,200.633 209.077,200.953 208.682 C 201.274 208.286,201.412 208.213,201.260 208.519 C 201.078 208.884,201.263 208.829,201.799 208.359 C 202.786 207.493,205.185 203.072,205.185 202.120 C 205.185 201.745,205.350 201.540,205.551 201.664 C 205.761 201.794,205.823 201.645,205.697 201.316 C 205.576 200.999,205.656 200.741,205.875 200.741 C 206.094 200.741,206.188 200.519,206.084 200.247 C 205.980 199.976,206.055 199.037,206.252 198.160 C 206.479 197.154,206.481 196.228,206.260 195.646 C 206.022 195.019,206.045 194.561,206.334 194.214 C 206.855 193.587,206.610 193.538,206.000 194.148 M165.766 197.015 C 165.956 200.523,167.462 205.177,168.678 206.013 C 168.896 206.163,168.962 206.288,168.825 206.291 C 168.602 206.296,169.081 206.877,171.422 209.444 C 172.627 210.766,174.553 212.263,175.996 212.999 C 176.772 213.395,177.407 213.900,177.407 214.121 C 177.407 214.343,177.653 214.430,177.952 214.315 C 178.252 214.200,178.710 214.307,178.971 214.553 C 179.231 214.799,179.778 215.046,180.185 215.103 C 181.240 215.250,181.611 215.356,182.075 215.647 C 182.300 215.787,182.800 215.647,183.186 215.334 C 183.855 214.794,183.840 214.774,182.888 214.921 C 182.305 215.011,181.456 214.790,180.851 214.392 C 180.281 214.016,179.565 213.704,179.259 213.698 C 178.954 213.692,178.287 213.361,177.778 212.963 C 177.269 212.565,176.586 212.235,176.261 212.230 C 175.936 212.226,175.368 211.888,174.998 211.479 C 174.628 211.071,174.255 210.807,174.169 210.893 C 174.017 211.045,171.551 208.316,169.603 205.840 C 168.173 204.022,166.947 200.657,165.925 195.741 C 165.688 194.600,165.652 194.893,165.766 197.015 M217.548 197.273 C 218.034 201.541,219.944 204.547,223.611 206.814 C 224.477 207.349,225.188 207.993,225.191 208.245 C 225.195 208.585,225.277 208.577,225.507 208.213 C 225.758 207.818,225.938 207.843,226.437 208.342 C 226.778 208.682,227.282 208.874,227.559 208.768 C 227.835 208.662,228.719 208.802,229.523 209.079 C 230.327 209.356,232.389 209.589,234.104 209.597 C 239.382 209.622,241.276 209.789,241.786 210.274 C 242.474 210.930,243.172 210.883,242.620 210.218 C 242.364 209.910,242.328 209.608,242.533 209.482 C 243.323 208.993,243.274 210.856,242.479 211.520 C 242.032 211.893,241.826 212.203,242.022 212.210 C 242.466 212.225,246.040 208.509,245.806 208.275 C 245.711 208.181,245.991 207.718,246.428 207.248 C 248.037 205.514,248.796 204.475,248.598 204.277 C 248.486 204.165,248.597 204.074,248.843 204.074 C 249.090 204.074,249.253 203.866,249.206 203.611 C 249.076 202.915,249.677 200.585,250.047 200.349 C 250.225 200.235,250.129 199.818,249.833 199.423 C 249.314 198.728,249.303 198.732,249.506 199.537 C 249.622 199.995,249.551 200.370,249.349 200.370 C 249.147 200.370,248.879 200.881,248.755 201.504 C 248.549 202.531,247.005 205.112,245.268 207.330 C 244.629 208.146,244.603 208.150,244.603 207.423 C 244.603 207.007,244.817 206.667,245.079 206.667 C 245.341 206.667,245.553 206.375,245.550 206.019 C 245.546 205.566,245.457 205.508,245.256 205.825 C 245.037 206.169,244.622 206.183,243.536 205.884 C 242.750 205.666,241.632 205.558,241.053 205.643 C 239.909 205.811,239.743 205.593,240.463 204.867 C 240.834 204.493,240.797 204.449,240.278 204.647 C 239.921 204.783,239.630 205.025,239.630 205.185 C 239.630 205.345,239.387 205.569,239.090 205.683 C 238.793 205.797,239.134 205.126,239.847 204.192 C 241.518 202.003,242.298 200.479,242.146 199.697 C 242.067 199.289,241.729 199.648,241.164 200.741 C 240.106 202.788,237.385 205.436,235.447 206.304 C 234.607 206.680,234.210 207.026,234.501 207.130 C 234.775 207.228,232.889 207.292,230.309 207.272 C 227.729 207.252,225.690 207.119,225.777 206.978 C 225.865 206.836,225.563 206.601,225.106 206.457 C 223.974 206.097,221.216 204.017,220.966 203.333 C 220.854 203.028,220.556 202.444,220.303 202.037 C 220.051 201.630,219.585 200.880,219.268 200.370 C 218.451 199.059,217.692 196.735,217.946 196.324 C 218.064 196.133,217.976 195.863,217.752 195.725 C 217.465 195.548,217.404 196.011,217.548 197.273 M150.933 200.624 C 150.546 206.768,150.539 207.770,150.867 210.470 L 151.172 212.977 149.833 214.315 C 149.096 215.052,148.569 215.729,148.660 215.821 C 148.752 215.913,149.180 215.634,149.612 215.203 C 150.044 214.771,150.556 214.515,150.750 214.635 C 150.944 214.755,151.010 214.612,150.897 214.316 C 150.783 214.021,150.910 213.575,151.179 213.324 C 151.627 212.906,151.762 197.194,151.321 196.753 C 151.247 196.679,151.072 198.420,150.933 200.624 M98.749 199.259 C 98.862 200.583,98.968 201.875,98.984 202.130 C 98.999 202.384,99.151 202.593,99.321 202.593 C 99.491 202.593,99.597 202.718,99.556 202.870 C 99.428 203.355,100.071 204.963,100.815 206.019 C 101.209 206.579,101.415 207.037,101.272 207.037 C 101.128 207.037,101.452 207.384,101.991 207.807 C 102.529 208.231,102.884 208.717,102.779 208.887 C 102.674 209.057,103.672 209.993,104.998 210.966 C 106.323 211.939,107.407 212.870,107.407 213.034 C 107.407 213.199,107.644 213.333,107.933 213.333 C 108.468 213.333,110.774 214.441,111.111 214.860 C 112.276 216.310,123.426 216.151,124.913 214.664 C 125.407 214.169,125.653 214.074,126.431 214.074 C 126.708 214.074,127.570 213.569,128.347 212.952 C 129.708 211.871,130.586 211.969,130.132 213.152 C 129.780 214.071,132.582 216.010,133.904 215.762 C 134.641 215.624,135.169 215.692,135.250 215.936 C 135.324 216.157,136.044 215.767,136.850 215.070 L 138.317 213.803 138.279 209.479 C 138.258 207.100,138.137 205.050,138.009 204.923 C 137.426 204.340,137.228 205.552,137.302 209.250 C 137.374 212.817,137.300 213.343,136.623 214.124 C 134.964 216.038,131.087 214.823,131.145 212.407 L 131.163 211.667 131.481 212.407 C 131.657 212.815,131.812 212.929,131.826 212.661 C 131.867 211.885,131.108 210.699,130.722 210.937 C 130.107 211.318,130.343 210.929,131.144 210.243 C 131.888 209.606,131.909 209.607,131.704 210.253 C 131.523 210.826,131.739 210.942,133.153 211.033 C 134.316 211.109,134.817 210.997,134.820 210.663 C 134.825 210.325,134.931 210.347,135.185 210.741 C 135.425 211.111,135.546 211.142,135.550 210.833 C 135.553 210.579,135.825 210.370,136.154 210.370 C 136.594 210.370,136.694 210.150,136.530 209.537 C 136.407 209.079,136.291 208.204,136.272 207.593 C 136.253 206.981,136.161 206.668,136.067 206.896 C 135.944 207.194,135.512 207.173,134.522 206.819 C 132.900 206.240,129.259 206.135,129.259 206.667 C 129.259 206.870,128.759 207.037,128.148 207.037 C 127.537 207.037,127.037 207.207,127.037 207.414 C 127.037 207.636,126.639 207.692,126.071 207.550 C 125.433 207.389,124.999 207.480,124.790 207.817 C 124.539 208.223,124.382 208.234,124.015 207.867 C 123.717 207.569,123.697 207.407,123.960 207.407 C 124.615 207.407,128.150 204.056,129.126 202.510 C 130.095 200.976,130.769 197.858,130.033 198.313 C 129.805 198.454,129.704 198.709,129.809 198.879 C 130.013 199.209,127.751 203.422,126.956 204.193 C 124.681 206.401,116.882 208.655,116.070 207.341 C 115.963 207.167,115.717 207.122,115.525 207.241 C 115.049 207.535,111.111 205.700,111.111 205.184 C 111.111 204.957,110.967 204.860,110.790 204.969 C 110.382 205.222,109.424 204.141,109.093 203.056 C 108.953 202.597,108.691 202.222,108.511 202.222 C 108.331 202.222,107.883 201.597,107.517 200.833 C 106.944 199.637,106.836 199.558,106.735 200.264 C 106.482 202.047,111.749 207.765,113.662 207.783 C 114.183 207.788,114.188 207.835,113.704 208.148 C 113.253 208.439,113.304 208.508,113.970 208.513 C 114.547 208.517,114.728 208.684,114.578 209.074 C 114.461 209.380,114.550 209.630,114.775 209.630 C 115.001 209.630,115.185 209.796,115.185 210.000 C 115.185 210.506,113.439 210.471,113.123 209.959 C 112.983 209.732,113.098 209.401,113.378 209.224 C 113.714 209.011,113.738 208.898,113.448 208.895 C 113.205 208.891,112.897 209.067,112.762 209.284 C 112.628 209.502,111.993 209.652,111.351 209.617 C 109.578 209.522,109.195 209.596,109.438 209.989 C 109.567 210.198,109.134 210.329,108.407 210.302 C 107.717 210.276,106.940 210.386,106.680 210.547 C 105.222 211.448,99.641 203.084,98.902 198.889 L 98.543 196.852 98.749 199.259 M209.922 199.907 C 209.672 204.436,209.649 216.541,209.892 215.926 C 210.012 215.620,210.294 215.248,210.518 215.098 C 210.800 214.910,210.783 214.824,210.463 214.820 C 210.208 214.817,210.000 214.638,210.000 214.423 C 210.000 214.207,210.148 214.122,210.328 214.233 C 210.723 214.477,211.086 213.254,211.143 211.481 C 211.182 210.289,211.209 210.259,211.481 211.111 C 211.718 211.850,211.798 211.626,211.875 210.000 L 211.973 207.963 212.222 210.000 C 212.360 211.120,212.499 211.660,212.532 211.200 C 212.565 210.740,212.926 210.078,213.333 209.729 C 213.741 209.380,214.074 208.882,214.074 208.621 C 214.074 208.361,214.395 208.148,214.788 208.148 C 215.181 208.148,215.830 207.731,216.230 207.222 C 216.631 206.713,217.143 206.296,217.368 206.296 C 217.593 206.296,217.778 206.149,217.778 205.969 C 217.778 205.789,218.153 205.509,218.611 205.346 C 219.241 205.123,218.901 205.013,217.222 204.895 C 215.597 204.782,215.199 204.658,215.741 204.433 C 216.354 204.179,216.274 204.122,215.278 204.100 C 214.330 204.080,214.074 203.917,214.074 203.333 C 214.074 202.922,213.827 202.593,213.519 202.593 C 213.213 202.593,212.963 202.759,212.963 202.963 C 212.963 203.167,212.630 203.333,212.222 203.333 C 211.815 203.333,211.479 203.542,211.476 203.796 C 211.472 204.105,211.350 204.074,211.111 203.704 C 210.914 203.398,210.750 201.773,210.746 200.093 C 210.739 196.226,210.133 196.090,209.922 199.907 M254.330 198.020 C 254.166 198.662,254.061 200.246,254.099 201.538 C 254.136 202.831,254.121 205.892,254.067 208.341 C 253.928 214.563,254.737 216.025,258.185 215.774 C 261.684 215.519,262.334 214.423,262.237 208.945 C 262.128 202.799,261.594 199.347,261.530 204.374 C 261.499 206.813,261.348 208.109,261.111 207.963 C 260.905 207.835,260.743 208.112,260.746 208.589 C 260.751 209.226,260.835 209.313,261.078 208.929 C 261.275 208.619,261.328 209.429,261.211 210.966 C 261.098 212.462,260.786 213.784,260.458 214.159 C 259.289 215.498,255.926 215.288,255.926 213.876 C 255.926 213.386,255.481 213.170,254.722 213.289 C 254.370 213.345,254.399 212.091,254.794 210.185 C 255.092 208.741,255.101 208.734,255.143 209.907 C 255.185 211.109,255.696 211.525,256.052 210.648 C 256.201 210.281,256.310 210.284,256.575 210.661 C 256.969 211.218,258.002 210.915,258.293 210.157 C 258.610 209.330,259.243 209.537,259.647 210.601 C 259.906 211.281,259.889 211.724,259.592 212.082 C 259.273 212.467,259.276 212.593,259.606 212.593 C 259.847 212.593,259.941 212.759,259.815 212.963 C 259.689 213.167,259.846 213.333,260.163 213.333 C 260.872 213.333,260.973 211.267,260.278 210.986 C 259.907 210.837,259.907 210.793,260.278 210.770 C 261.637 210.684,259.362 208.175,257.854 208.096 C 257.077 208.055,257.185 207.980,258.333 207.762 L 259.815 207.480 257.956 207.510 C 254.861 207.560,254.852 207.545,254.734 201.843 C 254.662 198.412,254.536 197.217,254.330 198.020 M261.587 198.704 C 261.590 199.722,261.662 200.095,261.747 199.532 C 261.832 198.969,261.830 198.136,261.742 197.680 C 261.654 197.225,261.585 197.685,261.587 198.704 M274.727 200.211 C 274.427 200.511,274.814 201.520,275.491 202.205 C 275.955 202.674,275.988 202.627,275.745 201.835 C 275.336 200.501,274.989 199.949,274.727 200.211 M282.802 201.111 C 282.936 201.620,283.183 202.184,283.349 202.363 C 283.803 202.851,283.559 201.777,283.024 200.926 C 282.589 200.235,282.574 200.248,282.802 201.111 M292.599 201.466 C 292.350 202.068,292.177 202.674,292.216 202.813 C 292.254 202.952,292.146 203.167,291.976 203.292 C 291.602 203.566,289.630 207.649,289.630 208.149 C 289.630 208.344,289.009 209.466,288.250 210.641 C 287.492 211.816,286.909 212.903,286.954 213.056 C 287.000 213.208,286.787 213.333,286.481 213.333 C 286.176 213.333,285.926 213.510,285.926 213.726 C 285.926 213.941,285.759 214.014,285.554 213.888 C 285.350 213.762,285.291 213.227,285.423 212.700 C 285.593 212.021,285.538 211.819,285.233 212.007 C 284.996 212.154,284.873 212.387,284.959 212.526 C 285.044 212.664,284.373 212.719,283.467 212.647 C 282.121 212.539,281.688 212.668,281.095 213.352 L 280.369 214.189 280.433 213.298 C 280.468 212.808,279.987 211.324,279.365 210.000 C 278.743 208.676,277.855 206.676,277.390 205.556 C 276.580 203.600,275.498 201.908,276.088 203.519 C 276.238 203.926,276.412 204.509,276.475 204.815 C 276.538 205.120,276.842 205.954,277.151 206.667 C 279.484 212.055,279.630 212.973,278.519 215.273 C 277.671 217.028,277.638 217.167,278.151 216.850 C 278.370 216.715,278.347 217.008,278.097 217.557 C 277.862 218.073,277.552 218.422,277.407 218.333 C 277.263 218.244,276.954 218.591,276.721 219.103 C 276.205 220.235,276.173 220.764,276.667 220.000 C 276.864 219.694,277.026 219.611,277.026 219.815 C 277.026 220.377,276.440 221.182,276.079 221.115 C 275.903 221.082,275.692 221.258,275.609 221.505 C 275.524 221.761,275.638 221.845,275.874 221.699 C 276.354 221.402,276.184 222.019,275.145 224.348 C 274.760 225.211,274.445 225.961,274.446 226.014 C 274.452 226.445,278.604 226.017,278.901 225.556 C 279.207 225.081,279.309 225.077,279.596 225.523 C 279.881 225.965,280.028 225.951,280.548 225.430 C 281.315 224.664,281.899 224.631,281.615 225.370 C 281.100 226.714,281.966 225.762,282.635 224.251 C 283.080 223.244,283.538 222.675,283.782 222.826 C 284.027 222.978,284.083 222.907,283.922 222.647 C 283.499 221.962,284.065 220.658,284.682 220.895 C 285.003 221.018,285.126 220.944,284.983 220.713 C 284.851 220.499,285.002 220.036,285.320 219.685 C 285.827 219.125,287.349 216.054,287.367 215.556 C 287.370 215.454,287.881 214.139,288.501 212.634 C 289.122 211.129,289.630 209.759,289.630 209.589 C 289.630 209.048,291.614 205.011,292.019 204.728 C 292.261 204.558,292.268 204.452,292.037 204.444 C 291.818 204.438,291.832 204.322,292.071 204.161 C 292.590 203.811,293.757 200.370,293.356 200.370 C 293.189 200.370,292.849 200.863,292.599 201.466 M284.844 201.411 C 284.828 201.677,284.650 201.794,284.449 201.669 C 284.235 201.538,284.179 201.693,284.313 202.043 C 284.463 202.434,284.669 202.516,284.906 202.280 C 285.105 202.080,285.180 201.694,285.071 201.421 C 284.912 201.024,284.868 201.022,284.844 201.411 M143.606 203.562 C 143.196 204.226,143.203 212.330,143.615 213.333 C 144.097 214.507,145.833 216.143,146.202 215.771 C 146.356 215.616,146.028 215.127,145.474 214.684 C 144.645 214.022,144.400 213.418,144.092 211.291 C 143.626 208.061,143.625 208.056,144.074 208.333 C 144.303 208.475,144.430 207.883,144.408 206.781 C 144.363 204.632,143.956 202.996,143.606 203.562 M171.938 206.439 C 171.662 207.047,171.637 207.407,171.871 207.407 C 172.322 207.407,172.718 206.487,172.521 205.896 C 172.443 205.663,172.181 205.907,171.938 206.439 M175.370 205.926 C 176.399 206.368,177.125 206.368,176.852 205.926 C 176.726 205.722,176.174 205.567,175.626 205.582 C 174.736 205.605,174.709 205.642,175.370 205.926 M147.165 206.716 C 147.655 207.001,147.965 206.998,148.258 206.705 C 148.556 206.407,148.371 206.299,147.574 206.308 C 146.616 206.317,146.566 206.368,147.165 206.716 M107.037 209.074 C 107.037 209.486,106.842 209.634,106.481 209.496 C 106.176 209.378,105.926 209.436,105.926 209.624 C 105.926 210.107,108.645 209.805,108.812 209.303 C 108.888 209.075,108.784 208.889,108.580 208.889 C 108.376 208.889,107.945 208.788,107.623 208.664 C 107.229 208.513,107.037 208.647,107.037 209.074 M190.220 209.218 C 189.801 209.382,190.504 209.491,191.954 209.486 C 193.296 209.481,194.312 209.345,194.212 209.183 C 193.987 208.818,191.177 208.843,190.220 209.218 M214.921 211.296 C 214.924 212.315,214.995 212.688,215.081 212.125 C 215.166 211.562,215.163 210.728,215.076 210.273 C 214.988 209.817,214.918 210.278,214.921 211.296 M129.529 210.741 C 128.374 211.649,128.012 211.665,127.360 210.833 C 126.902 210.249,126.915 210.234,127.484 210.680 C 128.017 211.098,128.248 211.083,128.955 210.588 C 130.169 209.738,130.643 209.864,129.529 210.741 M234.259 210.350 L 231.667 210.569 234.858 210.880 C 237.862 211.172,240.932 210.619,239.308 210.078 C 239.030 209.985,238.643 210.138,238.447 210.418 C 238.172 210.811,238.049 210.822,237.904 210.463 C 237.801 210.208,237.522 210.029,237.284 210.065 C 237.046 210.101,235.685 210.229,234.259 210.350 M184.815 210.648 C 184.816 211.081,187.696 211.172,187.959 210.748 C 188.104 210.513,187.556 210.370,186.503 210.370 C 185.575 210.370,184.815 210.495,184.815 210.648 M239.722 210.924 C 239.130 211.597,239.114 212.145,239.704 211.556 C 239.948 211.311,240.383 211.111,240.671 211.111 C 241.006 211.111,240.880 211.383,240.319 211.870 L 239.444 212.629 240.635 212.052 C 241.429 211.668,241.756 211.291,241.614 210.923 C 241.348 210.230,240.333 210.231,239.722 210.924 M217.443 211.141 C 217.813 211.375,217.829 211.472,217.500 211.476 C 217.160 211.480,217.055 212.342,217.106 214.722 L 217.175 217.963 217.407 214.815 C 217.535 213.083,217.673 211.833,217.714 212.037 C 217.756 212.241,217.951 212.157,218.148 211.852 C 218.409 211.448,218.509 211.429,218.513 211.781 C 218.516 212.048,218.678 212.167,218.873 212.047 C 219.506 211.656,218.905 210.927,217.902 210.869 C 217.201 210.828,217.071 210.905,217.443 211.141 M108.889 211.481 C 108.889 211.946,108.496 211.946,107.778 211.481 C 107.329 211.191,107.382 211.121,108.056 211.117 C 108.514 211.114,108.889 211.278,108.889 211.481 M126.310 211.650 C 126.064 211.947,125.986 212.389,126.136 212.634 C 126.304 212.904,126.254 212.980,126.009 212.829 C 125.788 212.692,125.502 212.750,125.374 212.957 C 125.246 213.164,124.860 213.323,124.515 213.310 C 124.045 213.292,124.088 213.206,124.690 212.963 C 125.130 212.786,125.600 212.296,125.733 211.876 C 125.867 211.455,126.152 211.111,126.367 211.111 C 126.615 211.111,126.594 211.308,126.310 211.650 M220.571 212.939 C 220.299 213.378,220.994 213.820,221.481 213.519 C 221.685 213.393,221.852 213.430,221.852 213.601 C 221.852 213.772,222.310 213.936,222.870 213.966 C 223.431 213.995,223.639 213.925,223.333 213.811 C 223.028 213.696,222.329 213.376,221.780 213.099 C 221.201 212.806,220.694 212.739,220.571 212.939 M235.776 214.261 C 235.192 214.703,235.165 214.830,235.620 215.005 C 236.361 215.289,238.251 214.540,237.963 214.075 C 237.638 213.548,236.602 213.636,235.776 214.261 M224.437 214.319 C 224.648 214.423,224.732 214.649,224.626 214.821 C 224.519 214.993,224.618 215.249,224.844 215.389 C 225.101 215.547,225.208 215.394,225.128 214.982 C 225.058 214.618,224.787 214.278,224.528 214.225 C 224.268 214.173,224.227 214.215,224.437 214.319 M226.416 214.740 C 226.788 214.899,227.067 215.185,227.037 215.376 C 227.006 215.566,227.202 215.781,227.472 215.852 C 227.874 215.959,227.873 215.919,227.468 215.635 C 227.196 215.444,226.997 215.140,227.025 214.959 C 227.053 214.778,226.776 214.589,226.408 214.540 C 225.776 214.455,225.777 214.466,226.416 214.740 M282.593 222.778 C 282.593 223.059,282.426 223.393,282.222 223.519 C 282.011 223.649,281.852 223.330,281.852 222.778 C 281.852 222.226,282.011 221.907,282.222 222.037 C 282.426 222.163,282.593 222.496,282.593 222.778 M170.000 291.789 C 170.000 291.977,170.262 292.349,170.582 292.614 C 171.033 292.989,171.117 293.550,170.957 295.124 C 170.843 296.239,170.865 297.036,171.005 296.896 C 171.794 296.107,171.682 292.715,170.846 292.085 C 170.381 291.734,170.000 291.601,170.000 291.789 M229.353 297.593 C 229.357 298.407,229.433 298.697,229.521 298.236 C 229.610 297.776,229.606 297.109,229.514 296.755 C 229.421 296.401,229.349 296.778,229.353 297.593 M164.268 306.184 C 164.327 308.872,164.512 311.289,164.678 311.554 C 164.843 311.820,165.008 312.227,165.044 312.460 C 165.184 313.381,167.569 315.241,168.406 315.081 C 168.863 314.993,169.149 315.064,169.041 315.239 C 168.933 315.413,174.397 315.539,181.182 315.519 C 187.967 315.498,193.102 315.355,192.593 315.201 C 191.723 314.937,191.746 314.911,192.963 314.775 C 194.789 314.570,194.575 313.931,192.593 313.667 C 191.676 313.545,191.301 313.420,191.759 313.389 C 192.218 313.358,192.593 313.167,192.593 312.963 C 192.593 312.759,192.926 312.593,193.333 312.593 C 193.741 312.593,194.074 312.759,194.074 312.963 C 194.074 313.195,196.420 313.333,200.370 313.333 C 204.321 313.333,206.667 313.195,206.667 312.963 C 206.667 312.759,207.093 312.593,207.614 312.593 C 208.152 312.593,208.463 312.432,208.333 312.222 C 208.194 311.997,205.428 311.852,201.274 311.852 C 194.691 311.852,194.444 311.825,194.444 311.111 C 194.444 310.391,194.691 310.370,203.118 310.370 C 207.888 310.370,212.055 310.269,212.377 310.146 C 213.361 309.768,213.031 308.997,211.759 308.701 L 210.556 308.420 211.667 308.111 C 212.580 307.858,212.515 307.839,211.296 308.008 C 210.481 308.121,209.440 308.201,208.981 308.185 C 207.798 308.144,207.945 308.805,209.167 309.016 C 209.727 309.113,209.352 309.109,208.333 309.008 C 207.315 308.906,205.038 308.846,203.274 308.874 C 201.304 308.906,199.970 308.770,199.817 308.522 C 199.680 308.300,199.248 308.219,198.858 308.343 C 198.456 308.471,198.148 308.394,198.148 308.167 C 198.148 307.702,172.101 307.775,171.635 308.241 C 171.245 308.632,171.514 308.814,172.784 309.019 C 173.392 309.118,173.972 309.229,174.074 309.267 C 174.495 309.422,171.533 310.081,169.817 310.213 C 168.800 310.292,167.911 310.526,167.842 310.734 C 167.594 311.476,165.556 311.172,165.556 310.392 C 165.556 309.997,165.389 309.570,165.185 309.444 C 164.981 309.319,164.795 307.934,164.771 306.367 C 164.747 304.800,164.600 303.019,164.443 302.407 C 164.284 301.782,164.207 303.433,164.268 306.184 M170.741 306.296 C 170.741 307.111,170.907 307.778,171.111 307.778 C 171.315 307.778,171.481 307.111,171.481 306.296 C 171.481 305.481,171.315 304.815,171.111 304.815 C 170.907 304.815,170.741 305.481,170.741 306.296 M202.139 308.049 C 203.011 308.128,204.344 308.127,205.102 308.047 C 205.861 307.967,205.148 307.903,203.519 307.905 C 201.889 307.906,201.268 307.971,202.139 308.049 M219.907 308.039 C 220.366 308.127,221.116 308.127,221.574 308.039 C 222.032 307.951,221.657 307.879,220.741 307.879 C 219.824 307.879,219.449 307.951,219.907 308.039 " stroke="none" fill="#63b68e" fill-rule="evenodd"></path><path id="path2" d="M253.844 201.111 C 253.844 203.454,253.904 204.412,253.977 203.241 C 254.051 202.069,254.051 200.153,253.977 198.981 C 253.904 197.810,253.844 198.769,253.844 201.111 M242.704 210.660 C 240.305 212.376,238.419 213.488,238.056 213.400 C 237.903 213.363,237.778 213.488,237.778 213.678 C 237.778 213.867,237.486 214.094,237.130 214.182 C 236.773 214.269,237.065 214.267,237.778 214.178 C 238.491 214.088,239.418 213.694,239.839 213.303 C 240.259 212.912,240.778 212.593,240.991 212.593 C 241.204 212.593,242.184 211.843,243.168 210.926 C 245.335 208.908,245.234 208.851,242.704 210.660 M254.500 212.151 C 254.463 212.974,254.304 213.290,254.017 213.113 C 253.741 212.942,253.690 213.012,253.873 213.308 C 254.333 214.052,254.891 213.177,254.714 211.990 C 254.561 210.961,254.554 210.966,254.500 212.151 M219.091 211.824 C 218.843 212.225,219.849 213.075,220.367 212.903 C 220.582 212.831,220.427 212.488,220.021 212.141 C 219.616 211.794,219.198 211.652,219.091 211.824 M217.407 219.975 C 217.407 229.020,217.329 229.329,214.774 230.387 C 213.662 230.848,211.852 230.130,211.852 229.229 C 211.852 229.018,211.703 228.937,211.520 229.050 C 210.887 229.442,210.741 228.052,210.741 221.636 C 210.741 217.582,210.603 215.185,210.370 215.185 C 210.144 215.185,209.987 217.090,209.966 220.093 C 209.947 222.792,209.900 225.648,209.862 226.439 C 209.797 227.744,211.322 231.024,211.779 230.566 C 211.861 230.485,212.367 230.584,212.903 230.788 C 213.982 231.199,216.745 230.613,217.389 229.837 C 217.881 229.244,218.238 212.322,217.765 212.029 C 217.539 211.890,217.407 214.823,217.407 219.975 M222.222 213.888 C 222.222 214.251,224.465 215.081,224.648 214.785 C 224.764 214.598,224.806 214.444,224.742 214.444 C 224.677 214.444,224.084 214.289,223.423 214.100 C 222.763 213.910,222.222 213.815,222.222 213.888 M227.042 215.403 C 229.083 215.864,233.454 215.792,234.801 215.275 C 235.436 215.032,234.127 214.937,230.486 214.963 C 225.827 214.996,225.453 215.044,227.042 215.403 M187.500 215.440 C 187.856 215.534,188.440 215.534,188.796 215.440 C 189.153 215.347,188.861 215.271,188.148 215.271 C 187.435 215.271,187.144 215.347,187.500 215.440 M133.704 215.933 C 133.263 216.223,133.318 216.275,133.972 216.183 C 134.425 216.120,134.911 215.953,135.052 215.812 C 135.445 215.419,134.333 215.518,133.704 215.933 M284.972 220.095 C 284.580 220.552,283.442 222.545,282.444 224.524 C 281.446 226.504,280.489 228.037,280.319 227.931 C 280.148 227.826,280.101 227.981,280.215 228.276 C 280.419 228.808,278.929 230.534,278.573 230.177 C 278.471 230.076,278.655 229.786,278.982 229.533 C 279.506 229.128,279.593 228.211,279.300 226.204 C 279.183 225.406,278.657 226.076,278.719 226.944 C 278.759 227.505,278.718 227.671,278.629 227.315 C 278.540 226.958,278.145 226.667,277.752 226.667 C 277.359 226.667,277.037 226.500,277.037 226.296 C 277.037 226.093,276.495 225.939,275.833 225.955 C 275.171 225.971,274.838 226.068,275.093 226.171 C 275.347 226.274,275.556 226.521,275.556 226.719 C 275.556 226.918,275.389 226.978,275.185 226.852 C 274.969 226.718,274.815 227.095,274.815 227.756 C 274.815 228.379,274.981 228.889,275.185 228.889 C 275.389 228.889,275.556 228.722,275.556 228.519 C 275.556 228.315,275.889 228.148,276.296 228.148 C 277.345 228.148,277.216 229.059,276.094 229.570 C 274.850 230.137,274.931 230.178,274.461 228.753 C 274.065 227.553,274.652 224.711,275.542 223.519 C 275.961 222.958,276.270 221.454,275.923 221.668 C 275.756 221.772,275.523 221.647,275.405 221.391 C 275.288 221.135,275.277 221.275,275.380 221.701 C 275.495 222.174,275.242 222.891,274.732 223.539 C 274.273 224.124,273.944 224.885,274.003 225.231 C 274.062 225.577,273.935 225.968,273.721 226.100 C 273.508 226.232,273.333 226.979,273.333 227.760 C 273.333 230.676,276.482 232.394,279.394 231.067 C 280.369 230.622,283.704 224.380,283.704 223.000 C 283.704 222.776,283.870 222.593,284.074 222.593 C 284.278 222.593,284.444 222.354,284.444 222.063 C 284.444 221.772,284.706 221.272,285.026 220.952 C 285.347 220.632,285.472 220.368,285.304 220.365 C 285.137 220.362,285.245 220.204,285.545 220.014 C 285.844 219.825,285.998 219.579,285.887 219.467 C 285.776 219.356,285.364 219.638,284.972 220.095 M214.352 228.403 C 213.577 228.606,213.483 229.259,214.229 229.259 C 215.113 229.259,215.933 228.830,215.717 228.480 C 215.502 228.133,215.408 228.128,214.352 228.403 M231.196 290.945 C 229.668 292.016,229.511 292.843,229.429 300.290 C 229.386 304.222,229.243 307.547,229.112 307.678 C 228.980 307.810,224.168 307.932,218.418 307.951 C 212.668 307.969,207.778 308.099,207.552 308.241 C 207.325 308.383,207.063 308.421,206.969 308.327 C 206.612 307.970,198.148 307.860,198.148 308.212 C 198.148 308.408,198.467 308.467,198.858 308.343 C 199.248 308.219,199.680 308.300,199.817 308.522 C 199.970 308.770,201.304 308.906,203.274 308.874 C 205.038 308.846,207.315 308.906,208.333 309.008 C 209.352 309.109,209.727 309.113,209.167 309.016 C 207.736 308.768,207.892 308.156,209.352 308.288 C 212.432 308.567,213.993 309.526,212.377 310.146 C 212.055 310.269,207.888 310.370,203.118 310.370 C 194.691 310.370,194.444 310.391,194.444 311.111 C 194.444 311.825,194.691 311.852,201.274 311.852 C 205.428 311.852,208.194 311.997,208.333 312.222 C 208.463 312.432,208.152 312.593,207.614 312.593 C 207.093 312.593,206.667 312.759,206.667 312.963 C 206.667 313.195,204.321 313.333,200.370 313.333 C 196.420 313.333,194.074 313.195,194.074 312.963 C 194.074 312.759,193.741 312.593,193.333 312.593 C 192.926 312.593,192.593 312.759,192.593 312.963 C 192.593 313.167,192.218 313.358,191.759 313.389 C 191.301 313.420,191.676 313.545,192.593 313.667 C 194.512 313.923,194.667 314.539,192.885 314.826 L 191.667 315.022 192.869 315.279 C 194.879 315.709,231.658 315.611,232.812 315.172 C 233.948 314.740,236.379 312.624,236.667 311.817 C 236.769 311.530,236.899 307.081,236.957 301.928 L 237.062 292.560 235.967 291.465 C 234.707 290.205,232.583 289.974,231.196 290.945 " stroke="none" fill="#68bb78" fill-rule="evenodd"></path><path id="path3" d="M230.223 150.990 C 229.693 151.562,229.259 152.181,229.259 152.366 C 229.259 152.551,229.774 152.164,230.402 151.506 C 231.031 150.849,231.464 150.230,231.366 150.131 C 231.267 150.032,230.753 150.419,230.223 150.990 M224.759 152.500 C 224.684 152.871,224.549 154.100,224.491 154.934 C 224.431 155.805,223.333 154.840,223.333 153.915 C 223.333 152.999,222.597 153.237,222.556 154.167 C 222.520 154.966,222.507 154.962,222.222 154.074 C 222.014 153.424,221.916 153.975,221.894 155.926 C 221.857 159.122,222.151 160.707,222.638 159.939 C 222.878 159.560,222.953 159.596,222.957 160.093 C 222.960 160.449,222.786 160.741,222.571 160.741 C 222.355 160.741,222.283 160.910,222.411 161.117 C 222.539 161.324,222.827 161.380,223.051 161.242 C 223.314 161.079,223.375 161.209,223.223 161.606 C 223.093 161.945,223.127 162.222,223.299 162.222 C 223.471 162.222,223.704 162.681,223.817 163.241 C 224.808 168.158,232.963 168.787,232.963 163.946 C 232.963 162.794,231.253 159.734,230.840 160.147 C 230.727 160.260,230.867 160.648,231.151 161.010 C 231.623 161.611,231.610 161.622,231.002 161.144 C 230.636 160.857,230.427 160.387,230.537 160.099 C 230.648 159.811,230.537 159.213,230.290 158.769 C 230.044 158.326,229.886 157.814,229.939 157.632 C 229.992 157.450,229.869 156.825,229.667 156.243 C 229.464 155.661,229.436 155.185,229.606 155.185 C 230.701 155.185,230.155 153.470,229.036 153.395 C 228.077 153.330,227.807 153.468,227.712 154.068 C 227.579 154.909,225.556 153.571,225.556 152.642 C 225.556 152.180,224.849 152.054,224.759 152.500 M298.611 163.147 C 298.356 163.436,298.148 163.846,298.148 164.058 C 298.148 164.271,297.981 164.444,297.778 164.444 C 297.574 164.444,297.407 164.621,297.407 164.837 C 297.407 165.052,297.593 165.114,297.819 164.974 C 298.046 164.834,298.380 164.950,298.561 165.230 C 298.795 165.592,298.864 165.471,298.797 164.815 C 298.743 164.278,298.882 163.922,299.129 163.969 C 299.380 164.016,299.476 163.752,299.363 163.321 C 299.259 162.920,299.151 162.599,299.123 162.607 C 299.096 162.614,298.866 162.857,298.611 163.147 M293.620 164.596 C 293.495 165.248,293.597 165.556,293.940 165.556 C 294.507 165.556,294.592 164.880,294.118 164.133 C 293.888 163.770,293.754 163.895,293.620 164.596 M262.341 167.778 C 262.341 169.102,262.408 169.644,262.490 168.981 C 262.572 168.319,262.572 167.236,262.490 166.574 C 262.408 165.912,262.341 166.454,262.341 167.778 M291.481 165.938 C 291.481 166.135,291.666 166.296,291.891 166.296 C 292.117 166.296,292.216 166.520,292.110 166.794 C 291.970 167.161,292.178 167.239,292.904 167.090 C 293.601 166.948,293.699 166.848,293.241 166.750 C 292.884 166.675,292.593 166.476,292.593 166.309 C 292.593 166.142,292.343 165.909,292.037 165.792 C 291.731 165.675,291.481 165.740,291.481 165.938 M295.722 166.260 C 295.529 166.444,295.037 166.675,294.630 166.773 C 294.059 166.910,294.117 166.961,294.886 166.994 C 295.434 167.018,295.985 166.870,296.111 166.667 C 296.237 166.463,296.539 166.309,296.781 166.326 C 297.099 166.347,297.093 166.407,296.759 166.542 C 296.505 166.644,296.296 166.902,296.296 167.113 C 296.296 167.347,296.513 167.318,296.848 167.040 C 297.446 166.544,297.272 165.926,296.534 165.926 C 296.281 165.926,295.916 166.076,295.722 166.260 M262.337 173.519 C 262.339 174.741,262.408 175.196,262.491 174.530 C 262.573 173.865,262.571 172.865,262.487 172.308 C 262.402 171.752,262.335 172.296,262.337 173.519 M253.857 180.370 C 253.857 184.139,253.912 185.681,253.980 183.796 C 254.047 181.912,254.047 178.829,253.980 176.944 C 253.912 175.060,253.857 176.602,253.857 180.370 M163.056 175.440 C 163.412 175.534,163.995 175.534,164.352 175.440 C 164.708 175.347,164.417 175.271,163.704 175.271 C 162.991 175.271,162.699 175.347,163.056 175.440 M185.278 175.450 C 185.838 175.535,186.755 175.535,187.315 175.450 C 187.875 175.366,187.417 175.296,186.296 175.296 C 185.176 175.296,184.718 175.366,185.278 175.450 M143.044 186.330 C 142.950 194.719,143.315 203.759,143.737 203.498 C 143.896 203.400,144.142 204.089,144.283 205.030 L 144.540 206.740 146.622 206.484 C 147.767 206.342,148.759 206.076,148.827 205.891 C 149.012 205.389,150.281 205.486,150.495 206.019 C 150.598 206.273,150.695 205.548,150.712 204.408 C 150.728 203.267,150.866 201.017,151.019 199.408 L 151.296 196.481 151.511 200.000 L 151.726 203.519 151.774 199.444 C 151.801 197.204,152.055 194.421,152.340 193.260 C 152.896 190.991,152.771 190.741,151.081 190.741 C 150.690 190.741,150.370 190.574,150.370 190.370 C 150.370 190.167,150.037 190.000,149.630 190.000 C 149.222 190.000,148.889 190.167,148.889 190.370 C 148.889 190.579,147.850 190.741,146.514 190.741 L 144.139 190.741 143.829 192.315 C 143.601 193.469,143.466 191.913,143.321 186.481 L 143.124 179.074 143.044 186.330 M193.704 186.591 C 194.620 187.431,195.524 188.125,195.713 188.133 C 196.269 188.158,194.590 186.540,193.263 185.773 C 192.180 185.147,192.232 185.243,193.704 186.591 M169.259 188.519 C 169.259 189.341,167.947 189.581,167.688 188.806 C 167.605 188.556,167.440 188.723,167.322 189.176 C 167.203 189.629,167.257 190.000,167.442 190.000 C 167.627 190.000,167.778 190.167,167.778 190.370 C 167.778 191.042,166.298 190.772,166.255 190.093 C 166.233 189.736,165.985 190.361,165.705 191.481 C 165.371 192.813,165.313 193.775,165.535 194.259 C 165.722 194.667,165.958 195.500,166.059 196.111 C 167.044 202.072,169.898 207.752,171.423 206.787 C 172.042 206.395,172.102 206.203,172.180 204.352 C 172.241 202.874,173.534 202.946,173.833 204.444 C 174.041 205.483,174.166 205.556,175.731 205.556 C 177.721 205.556,177.701 205.612,176.281 204.032 C 174.514 202.065,172.992 198.148,173.995 198.148 C 174.174 198.148,174.247 197.267,174.158 196.190 C 174.069 195.114,174.166 193.615,174.374 192.860 C 174.602 192.037,174.618 191.403,174.414 191.277 C 174.227 191.162,174.077 190.869,174.080 190.626 C 174.084 190.297,174.159 190.301,174.375 190.641 C 174.576 190.958,174.861 190.763,175.313 189.997 C 175.869 189.056,175.879 188.930,175.384 189.120 C 174.974 189.278,174.870 189.177,175.024 188.774 C 175.180 188.369,175.047 188.242,174.566 188.334 C 174.193 188.404,173.671 188.475,173.404 188.490 C 173.137 188.506,173.022 188.685,173.148 188.889 C 173.278 189.099,172.967 189.259,172.429 189.259 C 171.908 189.259,171.481 189.093,171.481 188.889 C 171.481 188.685,171.231 188.519,170.926 188.519 C 170.620 188.519,170.370 188.352,170.370 188.148 C 170.370 187.944,170.120 187.778,169.815 187.778 C 169.506 187.778,169.259 188.107,169.259 188.519 M199.759 189.630 C 199.553 190.659,198.955 190.990,197.677 190.782 C 197.520 190.756,197.520 191.195,197.677 191.757 C 197.834 192.318,197.963 194.139,197.963 195.803 C 197.963 199.443,198.244 199.443,198.575 195.804 C 198.805 193.286,198.814 193.331,198.746 196.667 C 198.682 199.820,198.571 200.338,197.671 201.660 C 196.641 203.173,196.384 203.922,197.033 203.521 C 197.243 203.391,197.305 203.540,197.178 203.870 C 196.884 204.636,197.122 204.594,198.157 203.696 C 198.778 203.157,199.132 203.060,199.418 203.350 C 199.701 203.638,199.603 203.917,199.074 204.324 C 198.368 204.868,198.389 204.887,199.537 204.734 C 200.199 204.645,200.741 204.705,200.741 204.866 C 200.741 205.411,202.356 206.081,202.515 205.602 C 202.594 205.366,202.914 204.917,203.225 204.605 C 203.537 204.294,203.691 203.938,203.568 203.815 C 203.445 203.692,203.597 203.408,203.904 203.183 C 204.663 202.628,205.546 199.151,205.551 196.696 C 205.554 195.352,205.758 194.464,206.169 194.011 C 206.656 193.472,206.675 193.332,206.261 193.328 C 205.848 193.323,205.839 193.259,206.219 193.018 C 206.770 192.669,206.295 189.848,205.563 189.122 C 205.249 188.810,205.204 188.869,205.388 189.352 C 205.524 189.710,205.464 190.000,205.252 190.000 C 205.041 190.000,204.793 189.708,204.700 189.352 C 204.596 188.953,204.514 189.096,204.487 189.722 C 204.437 190.906,203.879 191.080,203.596 190.000 C 203.465 189.499,203.091 189.259,202.442 189.259 C 201.728 189.259,201.481 189.450,201.481 190.000 C 201.481 190.435,201.235 190.741,200.884 190.741 C 200.431 190.741,200.326 190.472,200.449 189.630 C 200.539 189.019,200.470 188.519,200.297 188.519 C 200.123 188.519,199.881 189.019,199.759 189.630 M217.523 189.972 C 216.931 190.523,216.652 190.586,216.288 190.250 C 215.921 189.911,215.859 189.937,216.010 190.370 C 216.166 190.821,215.895 190.901,214.583 190.796 C 213.290 190.692,212.963 190.786,212.963 191.259 C 212.963 192.038,212.776 192.009,211.447 191.027 C 209.848 189.845,209.695 190.345,209.729 196.632 C 209.745 199.605,209.820 200.912,209.896 199.537 C 210.091 195.998,210.740 196.422,210.746 200.093 C 210.750 201.773,210.914 203.398,211.111 203.704 C 211.350 204.074,211.472 204.105,211.476 203.796 C 211.479 203.542,211.815 203.333,212.222 203.333 C 212.630 203.333,212.963 203.167,212.963 202.963 C 212.963 202.759,213.213 202.593,213.519 202.593 C 213.827 202.593,214.074 202.922,214.074 203.333 C 214.074 203.917,214.330 204.080,215.278 204.100 C 216.305 204.122,216.373 204.176,215.741 204.463 C 215.225 204.698,215.759 204.775,217.501 204.715 C 219.358 204.652,220.001 204.754,220.001 205.114 C 220.000 205.381,220.145 205.510,220.322 205.400 C 220.499 205.291,221.124 205.614,221.711 206.119 C 222.298 206.623,223.028 207.035,223.333 207.034 C 223.657 207.033,223.461 206.750,222.863 206.356 C 220.984 205.117,218.670 202.169,218.121 200.316 C 217.606 198.578,217.273 195.307,217.647 195.677 C 218.068 196.091,218.896 191.823,218.533 191.116 C 218.374 190.808,218.291 190.264,218.349 189.907 C 218.479 189.100,218.457 189.102,217.523 189.972 M248.939 192.315 C 248.884 194.651,248.121 195.208,247.037 193.704 C 246.411 192.836,245.647 192.777,244.664 193.521 C 244.040 193.993,243.901 193.981,243.472 193.417 C 243.044 192.853,242.985 192.942,242.975 194.167 C 242.968 194.931,242.796 195.556,242.593 195.556 C 242.389 195.556,242.222 195.863,242.222 196.238 C 242.222 196.614,241.898 197.864,241.501 199.016 C 240.763 201.163,240.796 201.920,241.549 200.093 C 241.867 199.321,242.005 199.225,242.118 199.697 C 242.302 200.467,241.543 201.970,239.847 204.192 C 239.134 205.126,238.793 205.797,239.090 205.683 C 239.387 205.569,239.630 205.345,239.630 205.185 C 239.630 205.025,239.921 204.783,240.278 204.647 C 240.797 204.449,240.834 204.493,240.463 204.867 C 239.743 205.593,239.909 205.811,241.053 205.643 C 241.632 205.558,242.750 205.666,243.536 205.884 C 244.622 206.183,245.037 206.169,245.256 205.825 C 245.457 205.508,245.546 205.566,245.550 206.019 C 245.553 206.375,245.296 206.667,244.978 206.667 C 244.661 206.667,244.509 206.841,244.641 207.055 C 245.151 207.880,248.340 203.576,248.755 201.504 C 248.879 200.881,249.148 200.370,249.352 200.370 C 249.567 200.370,249.628 200.843,249.496 201.500 C 249.372 202.121,249.415 202.540,249.591 202.431 C 250.004 202.176,250.355 200.370,249.992 200.370 C 249.840 200.370,249.626 200.028,249.517 199.608 C 249.357 198.998,249.418 198.930,249.822 199.265 C 250.227 199.601,250.366 199.440,250.526 198.453 C 250.838 196.530,250.651 193.704,250.212 193.698 C 249.954 193.694,249.944 193.597,250.185 193.420 C 250.689 193.050,250.825 192.222,250.382 192.222 C 250.185 192.222,250.074 192.014,250.136 191.759 C 250.198 191.505,250.179 191.421,250.094 191.574 C 249.788 192.120,249.308 191.838,249.150 191.019 C 249.062 190.560,248.967 191.144,248.939 192.315 M261.513 191.759 C 261.496 192.421,261.315 192.963,261.111 192.963 C 260.907 192.963,260.741 193.283,260.741 193.673 C 260.741 195.330,260.361 195.577,259.318 194.600 C 258.771 194.087,258.045 193.750,257.685 193.841 C 257.329 193.931,257.037 193.833,257.037 193.624 C 257.037 193.398,256.810 193.431,256.481 193.704 C 256.176 193.957,255.926 194.561,255.926 195.045 C 255.926 196.163,255.289 196.198,255.076 195.093 C 254.988 194.634,254.893 197.116,254.865 200.609 C 254.808 207.817,254.669 207.508,257.963 207.490 L 259.815 207.480 258.333 207.762 C 257.185 207.980,257.077 208.055,257.854 208.096 C 259.446 208.179,261.401 210.413,260.278 210.866 C 260.001 210.977,260.076 211.064,260.463 211.082 C 260.819 211.098,261.113 210.903,261.116 210.648 C 261.119 210.394,261.217 209.769,261.333 209.259 C 261.500 208.533,261.460 208.453,261.149 208.889 C 260.821 209.348,260.751 209.297,260.746 208.589 C 260.743 208.112,260.905 207.835,261.111 207.963 C 261.348 208.109,261.497 206.815,261.524 204.374 C 261.575 199.908,261.737 200.196,262.190 205.556 C 262.456 208.706,262.492 207.862,262.376 201.111 C 262.298 196.528,262.078 192.278,261.889 191.667 L 261.545 190.556 261.513 191.759 M130.574 192.683 C 130.419 193.038,130.185 193.263,130.054 193.181 C 129.922 193.100,129.815 194.252,129.815 195.741 C 129.815 197.230,129.958 198.360,130.132 198.252 C 130.771 197.857,129.999 201.128,129.126 202.510 C 128.150 204.056,124.615 207.407,123.960 207.407 C 123.697 207.407,123.717 207.569,124.015 207.867 C 124.382 208.234,124.539 208.223,124.790 207.817 C 124.999 207.480,125.433 207.389,126.071 207.550 C 126.639 207.692,127.037 207.636,127.037 207.414 C 127.037 207.207,127.537 207.037,128.148 207.037 C 128.759 207.037,129.259 206.870,129.259 206.667 C 129.259 206.135,132.900 206.240,134.522 206.819 C 135.512 207.173,135.944 207.194,136.067 206.896 C 136.161 206.668,136.251 207.097,136.267 207.849 C 136.305 209.604,137.037 210.130,137.037 208.401 C 137.037 205.154,137.993 203.565,138.247 206.389 C 138.325 207.255,138.418 204.856,138.454 201.058 C 138.509 195.221,138.433 194.120,137.963 193.940 C 137.657 193.823,137.407 193.483,137.407 193.185 C 137.407 192.757,136.825 192.646,134.630 192.654 C 133.102 192.660,131.852 192.815,131.852 192.999 C 131.852 193.603,131.169 193.348,131.010 192.685 C 130.863 192.069,130.841 192.069,130.574 192.683 M105.185 193.540 C 105.185 194.062,105.033 194.394,104.846 194.279 C 104.660 194.164,104.439 194.275,104.355 194.527 C 104.242 194.867,103.960 194.825,103.257 194.365 C 102.191 193.666,100.634 194.750,101.016 195.926 C 101.125 196.262,100.982 196.203,100.653 195.775 C 100.131 195.095,100.100 195.106,99.863 196.053 C 99.484 197.562,98.895 197.223,98.838 195.463 C 98.811 194.597,98.715 194.268,98.626 194.732 C 97.781 199.138,104.330 212.000,106.680 210.547 C 106.940 210.386,107.717 210.276,108.407 210.302 C 109.134 210.329,109.567 210.198,109.438 209.989 C 109.195 209.596,109.578 209.522,111.351 209.617 C 111.993 209.652,112.628 209.502,112.762 209.284 C 112.897 209.067,113.205 208.891,113.448 208.895 C 113.738 208.898,113.714 209.011,113.378 209.224 C 113.098 209.401,112.983 209.732,113.123 209.959 C 113.439 210.471,115.185 210.506,115.185 210.000 C 115.185 209.796,115.001 209.630,114.775 209.630 C 114.550 209.630,114.461 209.380,114.578 209.074 C 114.728 208.684,114.547 208.517,113.970 208.513 C 113.304 208.508,113.253 208.439,113.704 208.148 C 114.188 207.835,114.183 207.788,113.662 207.783 C 112.659 207.774,109.019 204.733,107.809 202.893 C 106.754 201.288,106.065 198.581,107.073 200.000 C 107.383 200.436,107.425 200.357,107.270 199.630 C 107.161 199.120,106.959 197.992,106.821 197.121 C 106.683 196.251,106.425 195.450,106.248 195.340 C 106.071 195.231,105.926 194.568,105.926 193.867 C 105.926 193.166,105.759 192.593,105.556 192.593 C 105.352 192.593,105.185 193.019,105.185 193.540 M275.556 193.730 C 275.556 195.165,274.462 195.844,273.689 194.889 C 272.779 193.765,272.459 193.869,272.726 195.204 C 272.885 195.999,272.827 196.256,272.530 196.072 C 272.268 195.911,272.210 195.976,272.376 196.245 C 272.523 196.484,272.781 196.594,272.950 196.490 C 273.118 196.386,273.357 196.563,273.480 196.884 C 273.793 197.700,273.761 197.857,273.333 197.593 C 272.753 197.234,272.896 197.587,273.712 198.528 C 274.225 199.120,274.329 199.472,274.042 199.649 C 273.739 199.837,273.736 199.976,274.035 200.161 C 274.260 200.300,274.595 200.321,274.779 200.207 C 274.963 200.094,275.296 200.526,275.519 201.167 C 276.013 202.583,276.031 202.962,275.570 202.233 C 275.381 201.933,275.150 201.767,275.058 201.863 C 274.817 202.113,276.042 204.815,276.396 204.815 C 276.559 204.815,276.507 204.467,276.279 204.042 C 276.052 203.617,275.949 203.187,276.050 203.086 C 276.200 202.936,277.778 206.072,277.778 206.520 C 277.778 206.592,278.390 207.946,279.137 209.529 C 279.885 211.112,280.468 212.808,280.433 213.298 L 280.369 214.189 281.061 213.391 C 282.056 212.244,284.614 212.265,285.234 213.425 C 285.509 213.938,285.739 214.080,285.834 213.795 C 285.918 213.541,286.224 213.333,286.512 213.333 C 286.801 213.333,287.000 213.208,286.954 213.056 C 286.909 212.903,287.492 211.816,288.250 210.641 C 289.009 209.466,289.630 208.344,289.630 208.149 C 289.630 207.649,291.602 203.566,291.976 203.292 C 292.146 203.167,292.254 202.952,292.216 202.813 C 292.093 202.373,293.039 200.370,293.369 200.370 C 293.543 200.370,293.527 200.787,293.333 201.296 C 292.848 202.574,293.192 202.459,293.889 201.111 C 294.205 200.500,294.355 200.000,294.223 200.000 C 294.091 200.000,294.212 199.718,294.492 199.373 C 294.771 199.029,294.809 198.861,294.576 199.001 C 294.343 199.141,294.056 199.006,293.939 198.702 C 293.823 198.397,293.888 198.148,294.086 198.148 C 294.283 198.148,294.431 197.856,294.415 197.500 C 294.398 197.113,294.311 197.038,294.199 197.315 C 293.978 197.863,292.593 197.943,292.593 197.407 C 292.593 196.725,290.003 197.005,289.174 197.778 C 288.737 198.185,288.005 198.519,287.547 198.519 C 286.916 198.519,286.688 198.763,286.599 199.534 C 286.524 200.180,286.226 200.598,285.779 200.683 C 285.234 200.786,285.131 200.662,285.317 200.130 C 285.538 199.499,285.513 199.502,285.001 200.163 C 284.695 200.559,284.447 201.142,284.450 201.460 C 284.455 201.968,284.499 201.970,284.815 201.481 C 285.124 201.003,285.175 201.012,285.180 201.552 C 285.190 202.732,284.560 202.565,283.817 201.190 C 283.409 200.434,282.898 199.851,282.683 199.896 C 282.468 199.940,282.195 199.723,282.076 199.413 C 281.953 199.093,282.018 198.948,282.226 199.077 C 282.695 199.366,282.692 198.504,282.222 197.778 C 281.903 197.284,281.862 197.284,281.852 197.778 C 281.842 198.265,281.798 198.266,281.495 197.788 C 281.268 197.428,281.301 197.146,281.594 196.960 C 281.894 196.769,281.828 196.676,281.389 196.672 C 281.032 196.669,280.741 196.417,280.741 196.111 C 280.741 195.806,280.556 195.556,280.331 195.556 C 280.105 195.556,280.019 195.812,280.139 196.125 C 280.270 196.465,280.108 196.791,279.738 196.933 C 279.397 197.063,279.054 196.978,278.976 196.743 C 278.897 196.507,278.262 195.744,277.565 195.046 C 276.867 194.349,276.296 193.594,276.296 193.370 C 276.296 193.146,276.130 192.963,275.926 192.963 C 275.722 192.963,275.556 193.308,275.556 193.730 M97.826 195.155 C 97.770 197.057,98.468 201.522,98.894 201.982 C 99.054 202.155,99.033 201.571,98.846 200.685 C 98.660 199.799,98.365 197.824,98.191 196.296 C 97.949 194.177,97.862 193.907,97.826 195.155 M206.132 194.410 C 206.018 194.595,206.081 195.137,206.272 195.614 C 206.597 196.425,206.621 196.404,206.643 195.278 C 206.667 194.061,206.511 193.797,206.132 194.410 M165.222 196.737 C 165.202 197.489,165.352 198.207,165.556 198.333 C 165.984 198.598,165.984 197.634,165.556 196.296 C 165.289 195.465,165.255 195.509,165.222 196.737 M276.296 196.296 C 276.296 196.704,276.130 197.037,275.926 197.037 C 275.722 197.037,275.556 196.704,275.556 196.296 C 275.556 195.889,275.722 195.556,275.926 195.556 C 276.130 195.556,276.296 195.889,276.296 196.296 M254.160 197.037 C 254.160 197.750,254.236 198.042,254.329 197.685 C 254.423 197.329,254.423 196.745,254.329 196.389 C 254.236 196.032,254.160 196.324,254.160 197.037 M217.789 196.667 C 217.789 196.972,217.951 197.472,218.148 197.778 C 218.467 198.272,218.507 198.272,218.507 197.778 C 218.507 197.472,218.346 196.972,218.148 196.667 C 217.829 196.173,217.789 196.173,217.789 196.667 M261.747 199.532 C 261.662 200.095,261.590 199.722,261.587 198.704 C 261.585 197.685,261.654 197.225,261.742 197.680 C 261.830 198.136,261.832 198.969,261.747 199.532 M206.173 198.765 C 206.037 198.901,205.936 199.360,205.949 199.784 C 205.971 200.493,206.001 200.484,206.328 199.668 C 206.690 198.762,206.615 198.323,206.173 198.765 M283.571 202.178 C 283.702 203.002,283.069 202.125,282.802 201.111 C 282.574 200.248,282.589 200.235,283.024 200.926 C 283.280 201.333,283.526 201.897,283.571 202.178 M205.410 201.327 C 205.107 202.117,205.125 202.776,205.442 202.460 C 205.725 202.176,206.006 200.741,205.778 200.741 C 205.699 200.741,205.534 201.004,205.410 201.327 M195.000 203.321 C 194.389 204.111,193.514 204.965,193.056 205.218 C 192.598 205.472,192.296 205.752,192.384 205.841 C 192.472 205.929,192.897 205.754,193.328 205.452 C 194.317 204.760,196.829 201.846,196.418 201.869 C 196.249 201.878,195.611 202.532,195.000 203.321 M109.259 203.589 C 109.259 203.793,109.593 204.261,110.000 204.630 C 110.407 204.998,110.741 205.133,110.741 204.930 C 110.741 204.726,110.407 204.258,110.000 203.889 C 109.593 203.520,109.259 203.385,109.259 203.589 M126.084 204.527 C 125.488 205.179,125.333 205.469,125.739 205.171 C 126.901 204.321,127.510 203.683,127.332 203.505 C 127.242 203.415,126.680 203.875,126.084 204.527 M151.603 206.111 C 151.605 207.537,151.672 208.075,151.752 207.307 C 151.832 206.538,151.831 205.371,151.749 204.714 C 151.667 204.056,151.601 204.685,151.603 206.111 M195.785 204.278 C 195.644 204.644,195.715 204.760,195.978 204.597 C 196.227 204.443,196.324 204.546,196.221 204.856 C 196.127 205.139,195.681 205.390,195.231 205.413 C 194.781 205.437,194.045 205.791,193.595 206.200 C 193.146 206.610,192.389 207.145,191.913 207.391 C 190.662 208.037,191.066 208.156,192.874 207.674 C 193.738 207.443,194.444 207.039,194.444 206.775 C 194.444 206.512,194.769 206.296,195.167 206.296 C 195.564 206.296,196.061 206.005,196.271 205.648 C 196.550 205.175,196.733 205.120,196.947 205.443 C 197.141 205.736,197.428 205.769,197.788 205.542 C 198.251 205.249,198.239 205.196,197.710 205.191 C 197.367 205.188,196.981 204.852,196.852 204.444 C 196.571 203.559,196.089 203.484,195.785 204.278 M290.645 207.104 C 290.087 208.332,289.641 209.528,289.655 209.761 C 289.668 209.994,289.867 209.769,290.095 209.259 C 290.324 208.750,290.834 207.619,291.229 206.745 C 291.624 205.871,291.882 205.092,291.804 205.014 C 291.725 204.935,291.204 205.875,290.645 207.104 M111.111 205.351 C 111.111 205.453,111.611 205.795,112.222 206.111 C 112.833 206.427,113.333 206.602,113.333 206.501 C 113.333 206.399,112.833 206.057,112.222 205.741 C 111.611 205.425,111.111 205.249,111.111 205.351 M253.810 207.593 C 253.812 208.611,253.884 208.984,253.969 208.421 C 254.055 207.858,254.052 207.025,253.964 206.569 C 253.877 206.113,253.807 206.574,253.810 207.593 M276.693 206.111 C 276.693 206.315,276.931 206.898,277.222 207.407 C 277.513 207.917,277.752 208.167,277.752 207.963 C 277.752 207.759,277.513 207.176,277.222 206.667 C 276.931 206.157,276.693 205.907,276.693 206.111 M246.204 207.775 C 245.644 208.555,245.185 209.316,245.185 209.467 C 245.185 209.617,245.697 209.034,246.324 208.169 C 246.950 207.305,247.408 206.544,247.342 206.478 C 247.276 206.412,246.764 206.996,246.204 207.775 M169.450 207.512 C 169.808 208.078,170.194 208.448,170.307 208.335 C 170.421 208.221,170.129 207.757,169.657 207.305 L 168.800 206.481 169.450 207.512 M143.704 208.889 C 143.704 209.580,143.802 209.679,144.148 209.333 C 144.494 208.988,144.494 208.790,144.148 208.444 C 143.802 208.099,143.704 208.198,143.704 208.889 M108.580 208.889 C 108.784 208.889,108.888 209.075,108.812 209.303 C 108.645 209.805,105.926 210.107,105.926 209.624 C 105.926 209.436,106.176 209.378,106.481 209.496 C 106.842 209.634,107.037 209.486,107.037 209.074 C 107.037 208.647,107.229 208.513,107.623 208.664 C 107.945 208.788,108.376 208.889,108.580 208.889 M107.778 211.481 C 108.496 211.946,108.889 211.946,108.889 211.481 C 108.889 211.278,108.514 211.114,108.056 211.117 C 107.382 211.121,107.329 211.191,107.778 211.481 M108.682 213.901 C 109.077 214.200,109.568 214.444,109.771 214.444 C 109.975 214.444,109.818 214.200,109.423 213.901 C 109.027 213.602,108.537 213.357,108.333 213.357 C 108.130 213.357,108.286 213.602,108.682 213.901 M260.741 215.066 C 259.920 215.935,259.904 215.998,260.605 215.626 C 261.039 215.395,261.492 214.951,261.611 214.640 C 261.902 213.883,261.822 213.922,260.741 215.066 M116.951 216.194 C 117.617 216.277,118.617 216.275,119.173 216.191 C 119.730 216.106,119.185 216.039,117.963 216.041 C 116.741 216.043,116.285 216.112,116.951 216.194 M185.283 216.192 C 185.846 216.277,186.679 216.275,187.135 216.187 C 187.590 216.099,187.130 216.029,186.111 216.032 C 185.093 216.035,184.720 216.107,185.283 216.192 M204.550 260.926 C 204.553 261.944,204.625 262.317,204.710 261.754 C 204.795 261.191,204.793 260.358,204.705 259.902 C 204.617 259.447,204.548 259.907,204.550 260.926 M196.822 267.778 C 196.822 271.750,196.876 273.375,196.943 271.389 C 197.009 269.403,197.009 266.153,196.943 264.167 C 196.876 262.181,196.822 263.806,196.822 267.778 M204.591 282.407 C 204.591 285.259,204.649 286.377,204.720 284.891 C 204.790 283.405,204.790 281.072,204.719 279.706 C 204.648 278.340,204.590 279.556,204.591 282.407 M207.758 284.352 L 206.481 285.741 207.870 284.464 C 209.163 283.276,209.430 282.963,209.147 282.963 C 209.085 282.963,208.460 283.588,207.758 284.352 M216.094 287.130 L 214.630 288.704 216.204 287.240 C 217.668 285.878,217.948 285.556,217.668 285.556 C 217.607 285.556,216.899 286.264,216.094 287.130 M169.259 290.633 C 169.565 290.746,170.199 291.274,170.668 291.808 L 171.521 292.778 171.075 291.852 C 170.561 290.784,170.045 290.372,169.259 290.405 C 168.765 290.426,168.765 290.452,169.259 290.633 M164.816 291.850 C 164.279 292.605,164.075 293.343,164.176 294.164 L 164.326 295.370 164.385 294.003 C 164.418 293.251,164.595 292.543,164.780 292.429 C 164.971 292.311,165.027 292.897,164.909 293.796 C 164.796 294.662,164.562 295.426,164.389 295.494 C 164.216 295.562,164.074 295.947,164.074 296.349 C 164.074 296.836,164.229 296.988,164.537 296.803 C 164.852 296.613,164.838 296.724,164.492 297.150 C 164.120 297.609,164.048 298.392,164.221 300.092 C 164.352 301.365,164.556 303.907,164.676 305.741 C 164.795 307.574,165.042 309.232,165.224 309.426 C 165.407 309.619,165.556 310.078,165.556 310.444 C 165.556 311.178,167.607 311.438,167.842 310.734 C 167.911 310.526,168.800 310.292,169.817 310.213 C 171.657 310.071,174.511 309.411,173.981 309.251 C 173.323 309.051,172.919 308.979,172.222 308.935 C 170.993 308.858,171.391 308.151,172.685 308.111 C 173.796 308.077,173.817 308.054,172.963 307.817 L 172.037 307.560 171.840 300.169 C 171.732 296.104,171.604 293.528,171.557 294.444 C 171.509 295.361,171.309 296.361,171.112 296.667 C 170.867 297.046,170.810 296.576,170.933 295.185 C 171.090 293.409,170.995 293.006,170.188 292.037 C 169.311 290.983,169.263 290.969,169.261 291.759 C 169.260 292.218,169.426 292.593,169.630 292.593 C 169.833 292.593,170.000 293.426,170.000 294.444 C 170.000 295.463,169.833 296.296,169.630 296.296 C 169.426 296.296,169.259 295.546,169.259 294.630 C 169.259 293.244,169.142 292.963,168.562 292.963 C 168.176 292.963,167.778 292.632,167.670 292.222 C 167.455 291.400,166.320 291.235,165.630 291.926 C 165.383 292.173,165.185 292.206,165.185 292.000 C 165.185 291.796,165.385 291.430,165.630 291.185 C 165.874 290.941,165.969 290.741,165.840 290.741 C 165.711 290.741,165.251 291.240,164.816 291.850 M166.519 293.522 C 166.376 294.498,165.556 295.083,165.556 294.210 C 165.556 293.796,165.667 293.346,165.802 293.210 C 166.232 292.780,166.604 292.942,166.519 293.522 M207.569 295.648 L 206.481 296.852 207.685 295.764 C 208.347 295.166,208.889 294.624,208.889 294.560 C 208.889 294.274,208.583 294.526,207.569 295.648 M171.481 306.296 C 171.481 307.111,171.315 307.778,171.111 307.778 C 170.907 307.778,170.741 307.111,170.741 306.296 C 170.741 305.481,170.907 304.815,171.111 304.815 C 171.315 304.815,171.481 305.481,171.481 306.296 M164.160 306.667 C 164.160 307.380,164.236 307.671,164.329 307.315 C 164.423 306.958,164.423 306.375,164.329 306.019 C 164.236 305.662,164.160 305.954,164.160 306.667 M174.887 315.832 C 177.065 315.897,180.732 315.897,183.035 315.832 C 185.338 315.767,183.556 315.714,179.074 315.713 C 174.593 315.713,172.708 315.766,174.887 315.832 " stroke="none" fill="#61b6a3" fill-rule="evenodd"></path><path id="path4" d="M143.104 202.407 C 143.105 204.852,143.165 205.804,143.238 204.523 C 143.310 203.241,143.309 201.241,143.236 200.078 C 143.163 198.915,143.104 199.963,143.104 202.407 M172.143 204.444 C 172.054 205.056,172.130 205.556,172.312 205.556 C 172.838 205.556,172.463 207.146,171.893 207.334 C 171.584 207.436,171.480 207.338,171.634 207.089 C 171.797 206.826,171.681 206.755,171.316 206.896 C 170.999 207.017,170.741 207.252,170.741 207.418 C 170.741 207.926,175.694 212.222,176.291 212.230 C 176.600 212.235,177.269 212.565,177.778 212.963 C 178.287 213.361,178.958 213.691,179.269 213.695 C 179.581 213.700,180.202 213.960,180.650 214.274 C 182.318 215.443,192.576 215.319,192.597 214.130 C 192.599 213.997,193.308 213.558,194.171 213.154 C 198.247 211.246,202.017 207.372,201.205 205.926 L 200.685 205.000 200.839 205.979 C 201.004 207.025,200.907 207.044,198.426 206.453 C 197.635 206.264,197.407 206.344,197.407 206.809 C 197.407 207.138,197.260 207.407,197.080 207.407 C 196.900 207.407,196.666 207.741,196.559 208.148 C 196.433 208.630,196.548 208.889,196.887 208.889 C 197.173 208.889,197.407 209.020,197.407 209.180 C 197.407 209.340,197.074 209.471,196.667 209.471 C 196.259 209.471,195.926 209.251,195.926 208.983 C 195.926 208.715,195.634 208.388,195.278 208.256 C 194.921 208.125,194.519 207.851,194.383 207.649 C 194.232 207.422,193.745 207.538,193.113 207.952 C 192.470 208.373,191.356 208.633,190.119 208.651 C 189.035 208.667,188.148 208.805,188.148 208.958 C 188.148 209.111,188.440 209.147,188.796 209.039 C 189.153 208.930,188.975 209.114,188.401 209.446 C 187.755 209.820,187.191 209.924,186.920 209.721 C 186.035 209.058,183.282 208.373,183.027 208.753 C 182.890 208.958,182.111 209.136,181.296 209.150 C 180.087 209.171,179.968 209.118,180.649 208.859 C 181.107 208.685,181.732 208.638,182.037 208.755 C 182.343 208.872,182.591 208.825,182.589 208.651 C 182.584 208.226,179.592 206.907,178.889 207.019 C 178.583 207.068,178.456 206.983,178.605 206.831 C 178.921 206.511,177.823 205.585,177.108 205.567 C 176.841 205.561,176.726 205.722,176.852 205.926 C 177.149 206.406,176.688 206.394,175.223 205.884 C 174.359 205.582,173.981 205.182,173.825 204.402 C 173.528 202.919,172.363 202.948,172.143 204.444 M218.611 205.318 C 218.153 205.545,217.778 205.858,217.778 206.014 C 217.778 206.169,217.593 206.296,217.368 206.296 C 217.143 206.296,216.631 206.713,216.230 207.222 C 215.830 207.731,215.181 208.148,214.788 208.148 C 214.395 208.148,214.074 208.390,214.074 208.685 C 214.074 208.981,213.818 209.366,213.505 209.541 C 213.193 209.716,212.790 210.349,212.611 210.948 C 212.321 211.919,212.276 211.816,212.194 210.000 L 212.101 207.963 211.852 210.000 C 211.715 211.120,211.553 211.620,211.492 211.111 C 211.217 208.793,210.803 214.486,210.773 220.988 C 210.742 227.715,210.878 229.404,211.428 229.141 C 211.559 229.078,212.036 229.412,212.487 229.884 C 212.938 230.355,213.118 230.741,212.888 230.741 C 212.658 230.741,212.559 230.831,212.670 230.941 C 213.047 231.318,215.826 229.961,216.674 228.987 C 217.517 228.017,217.518 227.996,217.265 219.748 C 217.062 213.130,217.106 211.480,217.487 211.476 C 217.823 211.472,217.799 211.362,217.407 211.104 C 216.974 210.819,217.056 210.759,217.778 210.832 C 218.287 210.884,218.972 211.216,219.300 211.571 C 219.628 211.925,220.878 212.644,222.078 213.167 C 223.278 213.691,224.544 214.273,224.893 214.461 C 225.241 214.649,225.785 214.704,226.101 214.582 C 226.417 214.461,226.891 214.540,227.154 214.758 C 227.663 215.181,232.329 215.093,233.414 214.640 C 233.763 214.494,234.263 214.452,234.525 214.546 C 234.786 214.640,235.500 214.464,236.111 214.155 C 236.722 213.847,237.722 213.341,238.333 213.031 C 239.985 212.194,241.309 211.111,240.680 211.111 C 240.387 211.111,239.948 211.311,239.704 211.556 C 239.459 211.800,239.259 211.871,239.259 211.714 C 239.259 210.711,241.269 209.949,241.585 210.833 C 241.676 211.088,241.876 211.179,242.030 211.036 C 243.077 210.064,240.676 209.628,234.104 209.597 C 232.389 209.589,230.327 209.356,229.523 209.079 C 228.719 208.802,227.835 208.662,227.559 208.768 C 227.282 208.874,226.768 208.672,226.415 208.320 C 225.969 207.874,225.729 207.814,225.625 208.125 C 225.531 208.406,225.278 208.287,224.939 207.804 C 224.644 207.382,224.027 207.037,223.567 207.037 C 223.108 207.037,222.365 206.695,221.917 206.277 C 221.468 205.860,220.936 205.620,220.733 205.745 C 220.531 205.870,220.265 205.712,220.143 205.394 C 219.893 204.743,219.784 204.738,218.611 205.318 M148.637 206.245 C 148.283 206.811,147.879 206.902,146.373 206.758 L 144.540 206.582 144.277 209.031 C 143.887 212.677,145.456 216.296,147.427 216.296 C 147.932 216.296,150.283 214.146,150.792 213.220 C 152.004 211.014,149.903 204.216,148.637 206.245 M194.212 209.183 C 194.312 209.345,193.296 209.481,191.954 209.486 C 190.504 209.491,189.801 209.382,190.220 209.218 C 191.177 208.843,193.987 208.818,194.212 209.183 M130.926 210.422 C 130.394 210.958,130.342 211.135,130.741 211.048 C 131.136 210.961,131.269 211.193,131.203 211.852 C 131.127 212.601,131.185 212.672,131.510 212.222 C 131.826 211.785,131.868 211.871,131.705 212.625 C 131.202 214.951,134.932 216.074,136.636 214.110 C 137.454 213.166,137.771 209.630,137.037 209.630 C 136.833 209.630,136.667 209.796,136.667 210.000 C 136.667 210.204,136.417 210.370,136.111 210.370 C 135.806 210.370,135.553 210.579,135.550 210.833 C 135.546 211.142,135.425 211.111,135.185 210.741 C 134.931 210.347,134.825 210.325,134.820 210.663 C 134.817 210.997,134.316 211.109,133.153 211.033 C 131.763 210.943,131.525 210.820,131.696 210.278 C 131.953 209.468,131.851 209.487,130.926 210.422 M215.081 212.125 C 214.995 212.688,214.924 212.315,214.921 211.296 C 214.918 210.278,214.988 209.817,215.076 210.273 C 215.163 210.728,215.166 211.562,215.081 212.125 M258.293 210.157 C 258.004 210.911,256.966 211.221,256.604 210.661 C 256.360 210.283,256.220 210.300,255.926 210.741 C 255.597 211.235,255.515 211.235,255.191 210.741 C 254.918 210.324,254.825 210.536,254.820 211.586 C 254.817 212.493,255.010 213.061,255.370 213.199 C 255.676 213.317,255.926 213.639,255.926 213.915 C 255.926 214.689,257.370 215.285,258.632 215.033 C 260.346 214.690,261.121 213.802,261.052 212.257 L 260.993 210.926 260.843 212.130 C 260.750 212.885,260.487 213.333,260.140 213.333 C 259.835 213.333,259.689 213.167,259.815 212.963 C 259.941 212.759,259.847 212.593,259.606 212.593 C 259.276 212.593,259.273 212.467,259.592 212.082 C 259.889 211.724,259.906 211.281,259.647 210.601 C 259.243 209.537,258.610 209.330,258.293 210.157 M128.955 210.588 C 128.248 211.083,128.017 211.098,127.484 210.680 C 126.915 210.234,126.902 210.249,127.360 210.833 C 128.012 211.665,128.374 211.649,129.529 210.741 C 130.643 209.864,130.169 209.738,128.955 210.588 M237.904 210.463 C 238.049 210.822,238.172 210.811,238.447 210.418 C 238.643 210.138,239.030 209.985,239.308 210.078 C 240.932 210.619,237.862 211.172,234.858 210.880 L 231.667 210.569 234.259 210.350 C 235.685 210.229,237.046 210.101,237.284 210.065 C 237.522 210.029,237.801 210.208,237.904 210.463 M187.959 210.748 C 187.696 211.172,184.816 211.081,184.815 210.648 C 184.815 210.495,185.575 210.370,186.503 210.370 C 187.556 210.370,188.104 210.513,187.959 210.748 M125.733 211.876 C 125.600 212.296,125.130 212.786,124.690 212.963 C 124.088 213.206,124.045 213.292,124.515 213.310 C 124.860 213.323,125.246 213.164,125.374 212.957 C 125.502 212.750,125.788 212.692,126.009 212.829 C 126.254 212.980,126.304 212.904,126.136 212.634 C 125.986 212.389,126.064 211.947,126.310 211.650 C 126.594 211.308,126.615 211.111,126.367 211.111 C 126.152 211.111,125.867 211.455,125.733 211.876 M150.959 213.612 C 150.811 214.070,150.369 214.618,149.975 214.828 C 149.581 215.039,149.259 215.411,149.259 215.654 C 149.259 215.898,149.779 215.577,150.415 214.941 C 151.050 214.306,151.493 213.559,151.399 213.282 C 151.287 212.954,151.133 213.069,150.959 213.612 M195.093 213.545 C 193.657 214.324,193.819 214.593,195.278 213.851 C 196.674 213.141,196.921 212.957,196.451 212.978 C 196.264 212.986,195.653 213.241,195.093 213.545 M189.856 215.489 C 189.753 215.655,190.160 215.720,190.760 215.632 C 191.361 215.544,191.852 215.407,191.852 215.328 C 191.852 215.046,190.040 215.192,189.856 215.489 M187.319 215.818 C 187.780 215.906,188.447 215.903,188.801 215.810 C 189.155 215.717,188.778 215.645,187.963 215.649 C 187.148 215.653,186.858 215.729,187.319 215.818 M209.772 220.741 C 209.772 223.287,209.832 224.329,209.904 223.056 C 209.976 221.782,209.976 219.699,209.904 218.426 C 209.832 217.153,209.772 218.194,209.772 220.741 M217.889 224.074 C 217.889 225.194,217.958 225.653,218.043 225.093 C 218.128 224.532,218.128 223.616,218.043 223.056 C 217.958 222.495,217.889 222.954,217.889 224.074 M280.548 225.430 C 280.036 225.943,279.880 225.960,279.616 225.534 C 279.442 225.252,279.183 225.138,279.041 225.280 C 278.899 225.422,278.947 225.750,279.147 226.010 C 279.717 226.749,279.638 229.279,279.038 229.509 C 278.752 229.619,278.519 229.887,278.519 230.104 C 278.519 230.322,278.940 230.103,279.455 229.619 C 279.971 229.135,280.306 228.514,280.200 228.239 C 280.095 227.964,280.158 227.831,280.340 227.944 C 280.522 228.057,280.927 227.399,281.239 226.482 C 281.831 224.743,281.595 224.384,280.548 225.430 M217.864 227.407 C 217.864 228.120,217.940 228.412,218.033 228.056 C 218.126 227.699,218.126 227.116,218.033 226.759 C 217.940 226.403,217.864 226.694,217.864 227.407 M274.276 226.985 C 273.777 228.556,274.907 230.111,276.139 229.549 C 277.224 229.055,277.326 228.148,276.296 228.148 C 275.889 228.148,275.556 228.315,275.556 228.519 C 275.556 228.722,275.389 228.889,275.185 228.889 C 274.981 228.889,274.815 228.379,274.815 227.756 C 274.815 227.095,274.969 226.718,275.185 226.852 C 275.389 226.978,275.556 226.904,275.556 226.689 C 275.556 226.016,274.506 226.260,274.276 226.985 M277.662 226.555 C 278.130 226.646,278.540 227.055,278.630 227.523 C 278.760 228.190,278.797 228.153,278.838 227.315 C 278.882 226.427,278.758 226.303,277.870 226.347 C 277.032 226.388,276.995 226.425,277.662 226.555 M215.717 228.480 C 215.933 228.830,215.113 229.259,214.229 229.259 C 213.483 229.259,213.577 228.606,214.352 228.403 C 215.408 228.128,215.502 228.133,215.717 228.480 M229.345 301.481 C 229.345 302.194,229.421 302.486,229.515 302.130 C 229.608 301.773,229.608 301.190,229.515 300.833 C 229.421 300.477,229.345 300.769,229.345 301.481 " stroke="none" fill="#77bd8e" fill-rule="evenodd"></path></g></svg>